<?xml version="1.0" encoding="utf-8"?>
<!-- Generator: Adobe Illustrator 15.0.0, SVG Export Plug-In . SVG Version: 6.00 Build 0)  -->
<!DOCTYPE svg PUBLIC "-//W3C//DTD SVG 1.1//EN" "http://www.w3.org/Graphics/SVG/1.1/DTD/svg11.dtd">
<svg version="1.1" id="Layer_1" xmlns="http://www.w3.org/2000/svg" xmlns:xlink="http://www.w3.org/1999/xlink" x="0px" y="0px"
	 width="428.667px" height="74px" viewBox="0 0 428.667 74" enable-background="new 0 0 428.667 74" xml:space="preserve">
<g>
	<path fill="#4D4D4F" d="M86.465,1.281v1.412h2.172h1.391v0.024c0.086-0.004,0.165-0.024,0.252-0.024
		c1.36,0,2.532,0.491,3.515,1.477c0.985,0.983,1.478,2.154,1.478,3.514c0,0.616-0.115,1.184-0.317,1.719
		c-0.147,0.641-0.351,1.323-0.682,2.092l-0.001,0.003L75.972,54.021L62.158,22.353c0.214-0.498,0.429-0.995,0.644-1.493
		c0.529-1.229,1.058-2.459,1.586-3.688c0.688-1.595,1.374-3.19,2.062-4.787c0.686-1.594,1.373-3.191,2.06-4.785
		c0.634-1.474,1.268-2.948,1.908-4.418c0.275-0.633,0.547-1.266,0.818-1.9H1.581v1.412h8.935L40.79,72l14.383-33.416L69.771,72
		L99.6,2.693h8.795V1.281H86.465z M46.991,54.021L24.603,2.693h14.893l14.903,34.118L46.991,54.021z M53.583,2.693h15.498
		l-7.697,17.886L53.583,2.693z"/>
	<path fill="#4D4D4F" d="M86.948,61.64c0.983-0.985,2.155-1.478,3.514-1.478c1.36,0,2.532,0.492,3.515,1.478
		c0.985,0.982,1.478,2.154,1.478,3.514c0,1.36-0.492,2.521-1.478,3.481c-0.983,0.959-2.155,1.439-3.515,1.439
		c-1.359,0-2.531-0.48-3.514-1.439c-0.986-0.961-1.478-2.121-1.478-3.481C85.471,63.794,85.962,62.622,86.948,61.64z"/>
	<polygon fill="#4D4D4F" points="241.117,33.668 241.867,33.638 241.117,33.638 	"/>
	<path fill="#4D4D4F" d="M178.227,37.143c-2.232-1.372-4.688-2.377-7.368-3.015c-2.681-0.637-5.265-1.05-7.751-1.244v-0.383
		c1.529-0.191,3.395-0.607,5.597-1.245c2.201-0.635,4.322-1.564,6.365-2.775c2.041-1.209,3.78-2.76,5.217-4.643
		c1.435-1.879,2.151-4.196,2.151-6.938c0-3.064-0.735-5.614-2.201-7.658c-1.467-2.041-3.333-3.668-5.597-4.879
		c-2.267-1.211-4.771-2.074-7.514-2.583c-2.744-0.51-5.362-0.768-7.848-0.768c-2.678,0-5.327,0.052-7.943,0.143
		c-2.617,0.097-5.263,0.146-7.944,0.146h-14.451v1.342h8.805v65.46h-8.805v1.339h14.451c2.681,0,5.343,0.033,7.991,0.097
		c2.648,0.062,5.312,0.098,7.992,0.098c2.426,0,5.169-0.273,8.231-0.817c3.063-0.54,5.946-1.512,8.661-2.917
		c2.713-1.403,5.007-3.318,6.893-5.741c1.879-2.427,2.822-5.487,2.822-9.188c0-3.383-0.735-6.188-2.201-8.423
		C182.31,40.315,180.459,38.516,178.227,37.143z M151.622,2.643c0.701-0.064,1.403-0.127,2.106-0.194
		c0.701-0.061,1.402-0.094,2.105-0.094c2.424,0,4.417,0.319,5.981,0.957c1.562,0.641,2.791,1.612,3.685,2.917
		c0.893,1.309,1.532,2.969,1.913,4.977c0.384,2.01,0.577,4.42,0.577,7.227c0,1.724-0.116,3.416-0.335,5.073
		c-0.227,1.661-0.753,3.143-1.581,4.448c-0.829,1.309-2.075,2.347-3.731,3.112c-1.661,0.765-3.924,1.151-6.796,1.151h-3.923V2.643z
		 M169.47,59.347c-0.607,2.39-1.481,4.257-2.632,5.596c-1.148,1.342-2.537,2.254-4.161,2.729c-1.629,0.478-3.464,0.717-5.503,0.717
		c-1.978,0-3.83-0.094-5.552-0.285V33.554h5.552c3.189,0,5.661,0.653,7.416,1.961c1.755,1.309,3.063,2.857,3.923,4.64
		c0.862,1.788,1.389,3.592,1.582,5.407c0.188,1.821,0.286,3.273,0.286,4.357C170.379,53.812,170.075,56.954,169.47,59.347z"/>
	<path fill="#4D4D4F" d="M261.879,63.342c-3.981-9.045-1.851-20.067-10.806-26.488c-2.045-1.466-4.454-2.537-6.875-3.215
		c-1.479-0.294-2.708-0.574-4.366-0.869v-0.48c8.641-0.665,18.912-4.604,18.912-14.874C258.745,4.648,245.304,1,235.227,1
		c-2.594,0-5.281,0.093-7.971,0.093c-2.687,0.096-5.278,0.191-7.967,0.191h-14.495v1.347h8.832v65.662h-8.832v1.339h31.582v-1.339
		h-8.831V33.638c0,0,6.333,0,6.336,0c5.283,0,9.344,4.206,10.941,8.954c0.554,1.648,1.014,3.426,1.268,5.149
		c0.461,3.14,0.929,6.282,1.569,9.388c0.528,2.556,0.986,5.286,2.216,7.615c0.617,1.176,1.417,2.318,2.45,3.163
		c0.481,0.393,1.012,0.728,1.56,1.021c0.29,0.156,1.638,0.694,1.934,0.708h0.275c0.021,0,0.044,0,0.066,0h9.954
		c0,0,3.068,0,3.071-0.005h0.977v-1.339h-1.344C266.675,68.293,263.158,66.246,261.879,63.342z M231.48,32.29h-3.935V2.631
		c1.438-0.096,2.785-0.29,4.223-0.29c9.6,0,12.191,4.899,12.191,16.127C243.959,25.477,243.002,32.29,231.48,32.29z M241.117,33.668
		v-0.03h0.75L241.117,33.668z"/>
	<path fill="#4D4D4F" d="M309.628,36.73v-2.342v-0.184V9.291c0.098-1.593,0.334-2.83,0.835-3.783
		c0.013-0.024,0.024-0.046,0.038-0.068c0.05-0.09,0.106-0.171,0.159-0.257c0.979-1.39,2.814-2.043,6.179-2.486
		c0.674-0.047,1.396-0.078,2.195-0.088h4.843V1.243h-2.967h-16.136h-1.6h-1.121h-1.6h-16.136h-2.967v1.365h4.843
		c0.801,0.01,1.521,0.041,2.195,0.088c3.364,0.443,5.199,1.096,6.179,2.486c0.054,0.085,0.109,0.167,0.159,0.257
		c0.014,0.022,0.025,0.044,0.038,0.068c0.501,0.953,0.737,2.19,0.836,3.783v24.913v0.184v2.342v0.84v24.02
		c-0.099,1.592-0.335,2.829-0.836,3.782c-0.013,0.024-0.024,0.046-0.038,0.068c-0.05,0.09-0.105,0.172-0.159,0.257
		c-0.979,1.391-2.814,2.043-6.179,2.486c-0.674,0.047-1.395,0.078-2.195,0.088h-4.843v1.365h2.967h16.136h1.6h1.121h1.6h16.136
		h2.967v-1.365h-4.843c-0.8-0.01-1.521-0.041-2.195-0.088c-3.364-0.443-5.199-1.096-6.179-2.486
		c-0.053-0.085-0.109-0.167-0.159-0.257c-0.014-0.022-0.025-0.044-0.038-0.068c-0.501-0.953-0.737-2.19-0.835-3.782V37.57V36.73z"/>
	<path fill="#4D4D4F" d="M403.347,1.243h-5.945h-10.69h-1.242h-16.013h-5.944h-24.048v17.516h1.244
		c0.955-3.255,2.011-5.936,3.157-8.04c1.147-2.104,2.455-3.747,3.923-4.931c1.47-1.178,3.126-2.01,4.979-2.487
		c1.849-0.477,3.954-0.717,6.316-0.717h3.446v32.167v0.311v33.234h-8.807v1.339h24.049h7.697h0.961h2.655h24.05v-1.339h-8.806
		V35.063v-0.311V2.585h3.445c2.362,0,4.468,0.24,6.316,0.717c1.853,0.477,3.51,1.309,4.979,2.487
		c1.468,1.184,2.775,2.827,3.923,4.931s2.203,4.785,3.157,8.04h1.245V1.243H403.347z M390.454,35.063v33.234h-1.368h-2.655h-0.961
		h-7.697h-1.367V35.063v-0.311V3.43V2.585h8.768h0.297h1.242h0.297h3.445V3.43v31.323V35.063z"/>
</g>
</svg>
