<?xml version="1.0" encoding="utf-8"?>
<!-- Generator: Adobe Illustrator 16.2.1, SVG Export Plug-In . SVG Version: 6.00 Build 0)  -->
<!DOCTYPE svg PUBLIC "-//W3C//DTD SVG 1.1//EN" "http://www.w3.org/Graphics/SVG/1.1/DTD/svg11.dtd">
<svg version="1.1" id="Layer_1" xmlns="http://www.w3.org/2000/svg" xmlns:xlink="http://www.w3.org/1999/xlink" x="0px" y="0px"
	 width="443px" height="162px" viewBox="0.5 -0.5 443 162" enable-background="new 0.5 -0.5 443 162" xml:space="preserve">
<polygon fill="#DCDDDD" points="53.094,12.031 47.094,12.031 47.094,6.031 43.094,6.031 43.094,12.031 37.094,12.031 37.094,16.031 
	43.094,16.031 43.094,22.031 47.094,22.031 47.094,16.031 53.094,16.031 "/>
<rect x="61.079" y="12.031" fill="#DCDDDD" width="16" height="4"/>
<polygon fill="#4E4D50" points="53.094,32.84 47.094,32.84 47.094,26.84 43.094,26.84 43.094,32.84 37.094,32.84 37.094,36.84 
	43.094,36.84 43.094,42.84 47.094,42.84 47.094,36.84 53.094,36.84 "/>
<rect x="61.079" y="32.84" fill="#4E4D50" width="16" height="4"/>
<rect x="418.148" y="6.015" fill="#DCDDDD" width="4" height="32.12"/>
<path fill="#DCDDDD" d="M27.582,22.488l-6.17-5.808c1.65-2.758,1.229-6.395-1.206-8.689c-1.304-1.227-3.007-1.903-4.797-1.903
	c-1.922,0-3.78,0.802-5.098,2.201C7.666,11.1,7.8,15.539,10.61,18.185c1.304,1.227,3.007,1.903,4.797,1.903
	c1.415,0,2.792-0.438,3.947-1.225l6.171,5.81L27.582,22.488z M15.407,17.087c-1.022,0-1.996-0.386-2.74-1.087
	c-1.606-1.512-1.683-4.048-0.171-5.654c0.764-0.811,1.798-1.258,2.913-1.258c1.022,0,1.996,0.386,2.74,1.087
	c1.606,1.513,1.683,4.049,0.171,5.655C17.557,16.641,16.522,17.087,15.407,17.087z"/>
<path fill="#4E4D50" d="M27.582,42.502l-6.17-5.808c1.65-2.758,1.229-6.395-1.206-8.689c-1.304-1.227-3.007-1.903-4.797-1.903
	c-1.922,0-3.78,0.802-5.098,2.201c-2.646,2.812-2.511,7.25,0.299,9.896c1.304,1.227,3.007,1.903,4.797,1.903
	c1.415,0,2.792-0.438,3.947-1.225l6.171,5.81L27.582,42.502z M15.407,37.102c-1.022,0-1.996-0.386-2.74-1.087
	c-1.606-1.512-1.683-4.048-0.171-5.654c0.764-0.811,1.798-1.258,2.913-1.258c1.022,0,1.996,0.386,2.74,1.087
	c1.606,1.513,1.683,4.049,0.171,5.655C17.557,36.655,16.522,37.102,15.407,37.102z"/>
<polygon fill="#FFFFFF" points="53.094,56.62 47.094,56.62 47.094,50.62 43.094,50.62 43.094,56.62 37.094,56.62 37.094,60.62 
	43.094,60.62 43.094,66.62 47.094,66.62 47.094,60.62 53.094,60.62 "/>
<rect x="61.079" y="56.62" fill="#FFFFFF" width="16" height="4"/>
<path fill="#FFFFFF" d="M27.582,66.283l-6.17-5.808c1.65-2.758,1.229-6.395-1.206-8.689c-1.304-1.227-3.007-1.903-4.797-1.903
	c-1.922,0-3.78,0.802-5.098,2.201c-2.646,2.811-2.511,7.25,0.299,9.896c1.304,1.227,3.007,1.903,4.797,1.903
	c1.415,0,2.792-0.438,3.947-1.225l6.171,5.81L27.582,66.283z M15.407,60.882c-1.022,0-1.996-0.386-2.74-1.087
	c-1.606-1.512-1.683-4.048-0.171-5.654c0.764-0.811,1.798-1.258,2.913-1.258c1.022,0,1.996,0.386,2.74,1.087
	c1.606,1.513,1.683,4.049,0.171,5.655C17.557,60.436,16.522,60.882,15.407,60.882z"/>
<g>
	<polygon fill="#4E4D50" points="97.024,5.088 122.024,30.088 97.024,55.088 	"/>
	<g>
		<polygon fill="#FFFFFF" points="108.857,38.89 109.357,38.39 101.408,30.441 109.357,22.492 108.857,21.992 100.408,30.441 		"/>
		<rect x="100.908" y="30.088" fill="#FFFFFF" width="16.818" height="0.707"/>
	</g>
</g>
<g>
	<polygon fill="#4E4D50" points="160.5,55.088 135.5,30.088 160.5,5.088 	"/>
	<g>
		<polygon fill="#FFFFFF" points="148.667,21.286 148.167,21.786 156.117,29.734 148.167,37.684 148.667,38.184 157.117,29.734 		
			"/>
		<rect x="139.798" y="29.381" fill="#FFFFFF" width="16.818" height="0.707"/>
	</g>
</g>
<g>
	<polygon fill="#4E4D50" points="108.857,84.787 109.357,84.287 101.408,76.338 109.357,68.388 108.857,67.888 100.408,76.338 	"/>
	<path fill="#231F20" d="M108.857,84.963l-8.626-8.625l8.626-8.626l0.677,0.677l-7.95,7.95l7.949,7.949L108.857,84.963z
		 M100.584,76.338l8.272,8.271l0.323-0.322l-7.949-7.949l7.95-7.95l-0.323-0.323L100.584,76.338z"/>
</g>
<g>
	<polygon fill="#4E4D50" points="148.667,67.182 148.167,67.682 156.117,75.631 148.167,83.581 148.667,84.081 157.117,75.631 	"/>
	<path fill="#231F20" d="M148.667,84.257l-0.677-0.677l7.95-7.95l-7.949-7.949l0.677-0.677l8.626,8.625L148.667,84.257z
		 M148.344,83.581l0.323,0.323l8.273-8.273l-8.272-8.272l-0.323,0.323l7.949,7.949L148.344,83.581z"/>
</g>
<g>
	<path fill="#4D4D4F" d="M209.667,8.962v21h21v-21H209.667z M229.667,28.962h-19v-19h19V28.962z"/>
	<polygon fill="#4D4D4F" points="219.667,24.462 220.667,24.462 220.667,19.962 225.167,19.962 225.167,18.962 220.667,18.962 
		220.667,14.462 219.667,14.462 219.667,18.962 215.167,18.962 215.167,19.962 219.667,19.962 	"/>
	<path fill="#4D4D4F" d="M209.667,54.628h21v-21h-21V54.628z M210.667,34.628h19v19h-19V34.628z"/>
	<rect x="215.167" y="43.628" fill="#4D4D4F" width="10" height="1"/>
</g>
<g>
	<path fill="#4D4D4F" d="M177.793,33.687v21h21v-21H177.793z M197.793,53.687h-19v-19h19V53.687z"/>
	<polygon fill="#4D4D4F" points="191.475,48.076 192.182,47.369 189,44.187 192.182,41.005 191.475,40.298 188.293,43.48 
		185.111,40.298 184.404,41.005 187.586,44.187 184.404,47.369 185.111,48.076 188.293,44.894 	"/>
</g>
<polygon fill="#4D4D4F" points="193.302,26.18 189,21.878 193.301,17.577 192.594,16.87 188.293,21.171 183.991,16.87 
	183.284,17.577 187.586,21.878 183.284,26.18 183.991,26.887 188.293,22.585 192.595,26.887 "/>
<g>
	<path fill="#4D4D4F" d="M387.31,8.754c0-0.572,0.134-1.056,0.431-1.507c0.176-0.286,0.418-0.539,0.682-0.737
		c0.297-0.22,0.484-0.319,0.968-0.495l0.431,1.122c-0.946,0.352-1.42,0.902-1.42,1.683c0,0.726,0.474,1.232,1.145,1.232
		c0.495,0,0.891-0.297,1.166-0.869l0.429-0.891c0.596-1.232,1.188-1.728,2.124-1.728c1.199,0,2.068,0.958,2.068,2.277
		c0,0.462-0.11,0.946-0.286,1.288c-0.198,0.385-0.484,0.682-0.979,1.023l-0.691-0.968c0.363-0.231,0.482-0.33,0.616-0.506
		c0.165-0.209,0.264-0.495,0.264-0.812c0-0.594-0.341-0.979-0.858-0.979c-0.187,0-0.328,0.055-0.482,0.165
		c-0.198,0.143-0.319,0.319-0.528,0.748l-0.374,0.748c-0.385,0.771-0.407,0.825-0.682,1.123c-0.44,0.484-0.979,0.726-1.617,0.726
		C388.311,11.395,387.31,10.294,387.31,8.754z"/>
	<path fill="#4D4D4F" d="M387.431,19.479h3.521v-3.608h-3.521v-1.309h7.769v1.32h-3.037v3.597h3.037v1.31h-7.769V19.479z"/>
	<path fill="#4D4D4F" d="M387.277,28.07c0-2.233,1.804-4.027,4.048-4.027c2.267,0,4.024,1.782,4.024,4.082
		c0,2.222-1.78,4.016-4.004,4.016C389.07,32.141,387.277,30.347,387.277,28.07z M394.109,28.136c0-1.541-1.199-2.729-2.772-2.729
		c-1.604,0-2.85,1.166-2.85,2.673s1.221,2.717,2.75,2.717C392.888,30.798,394.109,29.666,394.109,28.136z"/>
	<path fill="#4D4D4F" d="M390.864,38.938c-0.077-0.154-0.132-0.33-0.177-0.517c-0.076-0.286-0.089-0.506-0.089-0.99v-0.715h-3.168
		v-1.32h7.769v1.925c0,0.814-0.088,1.331-0.297,1.738c-0.354,0.704-1.067,1.1-1.947,1.1
		C392.02,40.159,391.238,39.708,390.864,38.938z M394.054,37.397v-0.682H391.7v0.693c0,0.957,0.396,1.441,1.199,1.441
		C393.669,38.85,394.054,38.376,394.054,37.397z"/>
</g>
<g>
	<path fill="#DCDDDD" d="M432.661,11.504c0.198-0.418,0.297-0.847,0.297-1.309c0-1.628-1.188-2.816-2.805-2.816
		c-1.618,0-2.808,1.177-2.808,2.761c0,0.473,0.121,0.99,0.342,1.441c0.109,0.22,0.177,0.33,0.362,0.594h-1.396
		c-0.057-0.121-0.101-0.198-0.132-0.253c-0.253-0.517-0.374-1.111-0.374-1.793c0-2.376,1.683-4.115,3.992-4.115
		c2.321,0,4.006,1.782,4.006,4.236c0,0.418-0.057,0.869-0.165,1.243c-0.077,0.275-0.134,0.407-0.33,0.715h-1.464
		C432.441,11.9,432.529,11.769,432.661,11.504z"/>
	<path fill="#DCDDDD" d="M426.247,21.02l1.826-0.771v-2.926l-1.826-0.858v-1.452l7.976,3.851v0.099l-7.976,3.521V21.02z
		 M431.528,18.863l-2.268-1.023v1.937L431.528,18.863z"/>
	<path fill="#DCDDDD" d="M426.247,29.181l3.246-2.343h-3.246v-1.309h7.767v2.002c0,1.1-0.099,1.562-0.429,2.013
		c-0.396,0.55-1.012,0.825-1.793,0.825c-1.254,0-2.068-0.715-2.255-1.991l-3.29,2.508V29.181z M432.287,28.917
		c0.143-0.077,0.275-0.176,0.363-0.297c0.176-0.242,0.229-0.495,0.229-1.034v-0.737h-2.376v0.627c0,0.198,0,0.352,0.011,0.451
		c0.013,0.253,0.089,0.506,0.209,0.682c0.209,0.286,0.552,0.44,0.97,0.44C431.902,29.049,432.1,29.005,432.287,28.917z"/>
	<path fill="#DCDDDD" d="M432.815,36.309h-6.568V35h6.568v-1.826h1.197v4.961h-1.197V36.309z"/>
</g>
<rect x="418.148" y="50.25" fill="#4E4D50" width="4" height="32.12"/>
<g>
	<path fill="#4E4D50" d="M432.661,55.739c0.198-0.418,0.297-0.847,0.297-1.309c0-1.628-1.188-2.816-2.805-2.816
		c-1.618,0-2.808,1.177-2.808,2.761c0,0.473,0.121,0.99,0.342,1.441c0.109,0.22,0.177,0.33,0.362,0.594h-1.396
		c-0.057-0.121-0.101-0.198-0.132-0.253c-0.253-0.517-0.374-1.111-0.374-1.793c0-2.376,1.683-4.115,3.992-4.115
		c2.321,0,4.006,1.782,4.006,4.236c0,0.418-0.057,0.869-0.165,1.243c-0.077,0.275-0.134,0.407-0.33,0.715h-1.464
		C432.441,56.135,432.529,56.003,432.661,55.739z"/>
	<path fill="#4E4D50" d="M426.247,65.254l1.826-0.771v-2.926l-1.826-0.858v-1.452l7.976,3.851v0.099l-7.976,3.521V65.254z
		 M431.528,63.098l-2.268-1.023v1.937L431.528,63.098z"/>
	<path fill="#4E4D50" d="M426.247,73.416l3.246-2.343h-3.246v-1.309h7.767v2.002c0,1.1-0.099,1.562-0.429,2.013
		c-0.396,0.55-1.012,0.825-1.793,0.825c-1.254,0-2.068-0.715-2.255-1.991l-3.29,2.508V73.416z M432.287,73.152
		c0.143-0.077,0.275-0.176,0.363-0.297c0.176-0.242,0.229-0.495,0.229-1.034v-0.737h-2.376v0.627c0,0.198,0,0.352,0.011,0.451
		c0.013,0.253,0.089,0.506,0.209,0.682c0.209,0.286,0.552,0.44,0.97,0.44C431.902,73.284,432.1,73.24,432.287,73.152z"/>
	<path fill="#4E4D50" d="M432.815,80.543h-6.568v-1.309h6.568v-1.826h1.197v4.961h-1.197V80.543z"/>
</g>
<rect x="379.395" y="50.25" fill="#FFFFFF" width="4" height="32.12"/>
<g>
	<path fill="#FFFFFF" d="M393.907,55.739c0.198-0.418,0.297-0.847,0.297-1.309c0-1.628-1.188-2.816-2.805-2.816
		c-1.618,0-2.808,1.177-2.808,2.761c0,0.473,0.121,0.99,0.341,1.441c0.11,0.22,0.178,0.33,0.363,0.594H387.9
		c-0.057-0.121-0.101-0.198-0.134-0.253c-0.253-0.517-0.372-1.111-0.372-1.793c0-2.376,1.683-4.115,3.992-4.115
		c2.321,0,4.004,1.782,4.004,4.236c0,0.418-0.055,0.869-0.165,1.243c-0.075,0.275-0.132,0.407-0.329,0.715h-1.464
		C393.688,56.135,393.774,56.003,393.907,55.739z"/>
	<path fill="#FFFFFF" d="M387.493,65.254l1.826-0.771v-2.926l-1.826-0.858v-1.452l7.976,3.851v0.099l-7.976,3.521V65.254z
		 M392.773,63.098l-2.268-1.023v1.937L392.773,63.098z"/>
	<path fill="#FFFFFF" d="M387.493,73.416l3.246-2.343h-3.246v-1.309h7.767v2.002c0,1.1-0.099,1.562-0.429,2.013
		c-0.396,0.55-1.012,0.825-1.793,0.825c-1.254,0-2.068-0.715-2.255-1.991l-3.29,2.508V73.416z M393.533,73.152
		c0.143-0.077,0.273-0.176,0.363-0.297c0.176-0.242,0.229-0.495,0.229-1.034v-0.737h-2.376v0.627c0,0.198,0,0.352,0.011,0.451
		c0.013,0.253,0.088,0.506,0.209,0.682c0.209,0.286,0.552,0.44,0.97,0.44C393.146,73.284,393.346,73.24,393.533,73.152z"/>
	<path fill="#FFFFFF" d="M394.061,80.543h-6.566v-1.309h6.566v-1.826h1.199v4.961h-1.199V80.543z"/>
</g>
<g>
	<path fill="#4D4D4F" d="M351.753,6.015h7.767v1.32h-7.767V6.015z"/>
	<path fill="#4D4D4F" d="M351.544,17.764l5.369-5.567h-5.16V10.91h7.976v0.11l-5.246,5.611h5.037v1.265h-7.976V17.764
		L351.544,17.764z"/>
	<path fill="#4D4D4F" d="M358.321,22.79h-1.793v2.508h-1.179v-2.497h-3.598v-1.342h7.768v3.883h-1.198V22.79z"/>
	<path fill="#4D4D4F" d="M351.599,32.316c0-2.233,1.806-4.027,4.048-4.027c2.269,0,4.026,1.782,4.026,4.082
		c0,2.222-1.782,4.016-4.004,4.016C353.392,36.386,351.599,34.593,351.599,32.316z M358.431,32.382c0-1.541-1.197-2.729-2.771-2.729
		c-1.606,0-2.852,1.166-2.852,2.673c0,1.507,1.223,2.717,2.75,2.717C357.21,35.044,358.431,33.911,358.431,32.382z"/>
</g>
<g>
	<path fill="#4D4D4F" d="M297.497,11.504c0.198-0.418,0.297-0.847,0.297-1.309c0-1.628-1.188-2.816-2.805-2.816
		c-1.618,0-2.806,1.177-2.806,2.761c0,0.473,0.121,0.99,0.34,1.441c0.109,0.22,0.177,0.33,0.363,0.594h-1.396
		c-0.055-0.121-0.1-0.198-0.133-0.253c-0.252-0.517-0.373-1.111-0.373-1.793c0-2.376,1.683-4.115,3.994-4.115
		c2.319,0,4.004,1.782,4.004,4.236c0,0.418-0.055,0.869-0.166,1.243c-0.076,0.275-0.131,0.407-0.33,0.715h-1.463
		C297.277,11.9,297.365,11.769,297.497,11.504z"/>
	<path fill="#4D4D4F" d="M292.073,20.92c-0.737-0.517-1.144-1.408-1.144-2.53c0-1.034,0.264-1.728,0.879-2.277
		c0.527-0.484,1.066-0.649,2.111-0.649h4.93v1.32h-4.556c-1.012,0-1.408,0.11-1.76,0.484c-0.286,0.297-0.407,0.66-0.407,1.221
		c0,0.528,0.165,0.936,0.482,1.221c0.343,0.297,0.761,0.396,1.65,0.396h4.588v1.298h-4.842
		C293.195,21.404,292.557,21.25,292.073,20.92z"/>
	<path fill="#4D4D4F" d="M290.962,27.113c0-0.572,0.132-1.056,0.429-1.507c0.176-0.286,0.418-0.539,0.684-0.737
		c0.297-0.22,0.482-0.319,0.968-0.495l0.429,1.122c-0.945,0.352-1.419,0.902-1.419,1.683c0,0.726,0.474,1.232,1.146,1.232
		c0.494,0,0.891-0.297,1.166-0.869l0.429-0.891c0.594-1.232,1.188-1.728,2.124-1.728c1.199,0,2.068,0.958,2.068,2.277
		c0,0.462-0.11,0.946-0.287,1.288c-0.197,0.385-0.483,0.682-0.979,1.023l-0.692-0.968c0.362-0.231,0.483-0.33,0.617-0.506
		c0.164-0.209,0.264-0.495,0.264-0.814c0-0.594-0.342-0.979-0.858-0.979c-0.187,0-0.33,0.055-0.483,0.165
		c-0.199,0.143-0.318,0.319-0.528,0.748l-0.373,0.748c-0.386,0.771-0.407,0.825-0.683,1.123c-0.439,0.484-0.979,0.726-1.617,0.726
		C291.963,29.753,290.962,28.653,290.962,27.113z"/>
	<path fill="#4D4D4F" d="M297.65,35.495h-6.567v-1.309h6.567V32.36h1.199v4.961h-1.199V35.495z"/>
	<path fill="#4D4D4F" d="M290.93,43.577c0-2.233,1.803-4.026,4.047-4.026c2.269,0,4.026,1.782,4.026,4.082
		c0,2.222-1.782,4.016-4.004,4.016C292.723,47.648,290.93,45.854,290.93,43.577z M297.761,43.644c0-1.541-1.198-2.729-2.772-2.729
		c-1.604,0-2.85,1.166-2.85,2.673s1.221,2.717,2.75,2.717C296.54,46.306,297.761,45.173,297.761,43.644z"/>
	<path fill="#4D4D4F" d="M291.083,57.822l4.412-0.891l-4.632-2.178v-0.11l4.621-2.036l-4.4-0.946v-1.31l7.977,1.728v0.11
		l-5.59,2.585l5.578,2.574v0.11l-7.965,1.716L291.083,57.822L291.083,57.822z"/>
	<path fill="#4D4D4F" d="M291.083,62.31h7.767v4.412h-1.199V63.63h-1.771v3.058h-1.198V63.63h-2.397v3.124h-1.199L291.083,62.31
		L291.083,62.31z"/>
	<path fill="#4D4D4F" d="M291.083,73.815l3.246-2.343h-3.246v-1.309h7.767v2.002c0,1.1-0.099,1.562-0.429,2.013
		c-0.396,0.55-1.012,0.825-1.793,0.825c-1.254,0-2.067-0.715-2.255-1.991l-3.29,2.508V73.815z M297.123,73.552
		c0.143-0.077,0.275-0.176,0.363-0.297c0.176-0.242,0.229-0.495,0.229-1.034v-0.737h-2.376v0.627c0,0.198,0,0.352,0.012,0.451
		c0.012,0.253,0.088,0.506,0.209,0.682c0.209,0.286,0.551,0.44,0.969,0.44C296.738,73.684,296.936,73.64,297.123,73.552z"/>
	<path fill="#4D4D4F" d="M297.497,88.412c0.198-0.418,0.297-0.848,0.297-1.309c0-1.629-1.188-2.816-2.805-2.816
		c-1.618,0-2.806,1.177-2.806,2.761c0,0.474,0.121,0.99,0.34,1.441c0.109,0.22,0.177,0.329,0.363,0.594h-1.396
		c-0.055-0.121-0.1-0.198-0.133-0.253c-0.252-0.518-0.373-1.111-0.373-1.793c0-2.376,1.683-4.115,3.994-4.115
		c2.319,0,4.004,1.782,4.004,4.236c0,0.418-0.055,0.869-0.166,1.242c-0.076,0.274-0.131,0.408-0.33,0.716h-1.463
		C297.277,88.809,297.365,88.676,297.497,88.412z"/>
	<path fill="#4D4D4F" d="M291.083,97.927l1.826-0.771V94.23l-1.826-0.858V91.92l7.976,3.85v0.101l-7.976,3.521V97.927z
		 M296.364,95.771l-2.267-1.023v1.938L296.364,95.771z"/>
	<path fill="#4D4D4F" d="M291.083,106.089l3.246-2.343h-3.246v-1.309h7.767v2.002c0,1.1-0.099,1.562-0.429,2.013
		c-0.396,0.55-1.012,0.825-1.793,0.825c-1.254,0-2.067-0.715-2.255-1.991l-3.29,2.508V106.089z M297.123,105.825
		c0.143-0.077,0.275-0.177,0.363-0.298c0.176-0.241,0.229-0.494,0.229-1.033v-0.737h-2.376v0.627c0,0.198,0,0.353,0.012,0.451
		c0.012,0.253,0.088,0.506,0.209,0.683c0.209,0.285,0.551,0.439,0.969,0.439C296.738,105.957,296.936,105.913,297.123,105.825z"/>
	<path fill="#4D4D4F" d="M291.083,110.764h7.767v4.411h-1.199v-3.091h-1.771v3.059h-1.198v-3.059h-2.397v3.125h-1.199
		L291.083,110.764L291.083,110.764z"/>
</g>
<g>
	<path fill="#4D4D4F" d="M258.598,8.754c0-0.572,0.131-1.056,0.428-1.507c0.178-0.286,0.418-0.539,0.684-0.737
		c0.297-0.22,0.482-0.319,0.968-0.495l0.431,1.122c-0.946,0.352-1.42,0.902-1.42,1.683c0,0.726,0.474,1.232,1.145,1.232
		c0.495,0,0.891-0.297,1.166-0.869l0.429-0.891c0.595-1.232,1.188-1.728,2.124-1.728c1.199,0,2.068,0.958,2.068,2.277
		c0,0.462-0.11,0.946-0.286,1.288c-0.198,0.385-0.483,0.682-0.979,1.023l-0.692-0.968c0.362-0.231,0.483-0.33,0.616-0.506
		c0.164-0.209,0.265-0.495,0.265-0.812c0-0.594-0.343-0.979-0.858-0.979c-0.187,0-0.328,0.055-0.482,0.165
		c-0.198,0.143-0.319,0.319-0.528,0.748l-0.374,0.748c-0.385,0.771-0.406,0.825-0.682,1.123c-0.44,0.484-0.979,0.726-1.617,0.726
		C259.598,11.395,258.598,10.294,258.598,8.754z"/>
	<path fill="#4D4D4F" d="M258.718,19.479h3.521v-3.608h-3.521v-1.309h7.767v1.32h-3.035v3.597h3.035v1.31h-7.767V19.479z"/>
	<path fill="#4D4D4F" d="M258.718,24.569h7.767v1.32h-7.767V24.569z"/>
	<path fill="#4D4D4F" d="M262.15,33.006c-0.077-0.154-0.133-0.33-0.176-0.517c-0.078-0.286-0.09-0.506-0.09-0.99v-0.715h-3.168
		v-1.32h7.768v1.925c0,0.814-0.088,1.331-0.297,1.738c-0.353,0.704-1.066,1.1-1.946,1.1
		C263.307,34.228,262.523,33.776,262.15,33.006z M265.341,31.466v-0.682h-2.354v0.693c0,0.957,0.396,1.441,1.199,1.441
		C264.956,32.918,265.341,32.445,265.341,31.466z"/>
	<path fill="#4D4D4F" d="M262.15,40.992c-0.077-0.154-0.133-0.33-0.176-0.517c-0.078-0.286-0.09-0.506-0.09-0.99V38.77h-3.168v-1.32
		h7.768v1.925c0,0.814-0.088,1.331-0.297,1.738c-0.353,0.704-1.066,1.1-1.946,1.1C263.307,42.213,262.523,41.762,262.15,40.992z
		 M265.341,39.452V38.77h-2.354v0.693c0,0.957,0.396,1.441,1.199,1.441C264.956,40.904,265.341,40.431,265.341,39.452z"/>
	<path fill="#4D4D4F" d="M258.718,45.436h7.767v1.32h-7.767V45.436z"/>
	<path fill="#4D4D4F" d="M258.509,57.185l5.369-5.567h-5.16v-1.287h7.976v0.11l-5.248,5.611h5.039v1.265h-7.976V57.185z"/>
	<path fill="#4D4D4F" d="M260.797,68.02c-1.354-0.517-2.211-1.871-2.211-3.466c0-2.299,1.672-3.982,3.96-3.982
		c2.31,0,4.07,1.76,4.07,4.093c0,0.781-0.198,1.474-0.583,2.112c-0.264,0.429-0.418,0.627-0.913,1.1l-0.935-0.88
		c0.482-0.385,0.647-0.561,0.847-0.902c0.231-0.407,0.385-0.979,0.385-1.497c0-1.518-1.254-2.673-2.883-2.673
		c-1.584,0-2.761,1.111-2.761,2.629c0,0.627,0.187,1.155,0.572,1.628c0.385,0.462,0.746,0.671,1.375,0.759v-1.837h1.241v3.234H262.7
		C261.919,68.338,261.413,68.261,260.797,68.02z"/>
	<path fill="#4D4D4F" d="M258.718,81.659l0.913-0.759c-0.363-0.396-0.506-0.583-0.671-0.902c-0.231-0.429-0.341-0.836-0.341-1.287
		c0-1.342,1.012-2.432,2.267-2.432c0.474,0,0.935,0.176,1.255,0.451c0.23,0.209,0.461,0.473,0.715,0.825
		c0.1,0.143,0.221,0.308,0.353,0.506c0.33-0.286,0.474-0.396,0.704-0.528c0.309-0.165,0.583-0.242,0.9-0.242
		c0.946,0,1.672,0.803,1.672,1.87c0,1.067-0.715,1.893-1.639,1.893c-0.363,0-0.736-0.143-1.023-0.407
		c-0.284-0.252-0.405-0.406-0.77-0.923l-1.672,1.34l0.891,0.881l-0.836,0.771l-0.935-0.924l-1.782,1.419L258.718,81.659
		L258.718,81.659z M262.326,78.688c-0.297-0.451-0.418-0.605-0.672-0.825c-0.23-0.198-0.428-0.286-0.682-0.286
		c-0.648,0-1.242,0.572-1.242,1.221c0,0.154,0.033,0.308,0.099,0.451c0.077,0.176,0.176,0.319,0.462,0.649
		c0.044,0.055,0.109,0.132,0.209,0.242L262.326,78.688z M265.439,79.172c0-0.363-0.241-0.627-0.571-0.627
		c-0.275,0-0.495,0.121-0.99,0.528c0.044,0.055,0.056,0.066,0.11,0.143c0.363,0.462,0.594,0.627,0.892,0.627
		C265.208,79.843,265.439,79.568,265.439,79.172z"/>
	<path fill="#4D4D4F" d="M258.718,94.958l3.246-2.343h-3.246v-1.309h7.767v2.002c0,1.1-0.099,1.562-0.428,2.012
		c-0.396,0.551-1.013,0.826-1.793,0.826c-1.255,0-2.068-0.715-2.256-1.991l-3.29,2.508V94.958L258.718,94.958z M264.758,94.693
		c0.143-0.076,0.275-0.176,0.363-0.297c0.176-0.241,0.23-0.494,0.23-1.033v-0.737h-2.375v0.627c0,0.198,0,0.353,0.01,0.451
		c0.012,0.253,0.089,0.506,0.209,0.682c0.209,0.286,0.551,0.44,0.969,0.44C264.373,94.826,264.57,94.782,264.758,94.693z"/>
	<path fill="#4D4D4F" d="M258.718,99.632h7.767v4.412h-1.197v-3.091h-1.771v3.058h-1.199v-3.058h-2.397v3.124h-1.199L258.718,99.632
		L258.718,99.632z"/>
	<path fill="#4D4D4F" d="M265.286,110.061h-6.568v-1.31h6.568v-1.826h1.198v4.961h-1.198V110.061z"/>
	<path fill="#4D4D4F" d="M259.708,120.312c-0.737-0.519-1.144-1.408-1.144-2.53c0-1.034,0.264-1.728,0.879-2.277
		c0.529-0.483,1.066-0.647,2.113-0.647h4.928v1.319h-4.555c-1.013,0-1.408,0.109-1.761,0.483c-0.286,0.297-0.405,0.66-0.405,1.222
		c0,0.527,0.163,0.935,0.482,1.222c0.341,0.297,0.759,0.396,1.648,0.396h4.588v1.298h-4.842
		C260.83,120.797,260.191,120.643,259.708,120.312z"/>
	<path fill="#4D4D4F" d="M258.718,127.979l3.246-2.344h-3.246v-1.31h7.767v2.003c0,1.1-0.099,1.562-0.428,2.013
		c-0.396,0.552-1.013,0.825-1.793,0.825c-1.255,0-2.068-0.715-2.256-1.991l-3.29,2.509V127.979L258.718,127.979z M264.758,127.715
		c0.143-0.076,0.275-0.176,0.363-0.297c0.176-0.242,0.23-0.495,0.23-1.034v-0.737h-2.375v0.627c0,0.199,0,0.354,0.01,0.451
		c0.012,0.254,0.089,0.508,0.209,0.685c0.209,0.284,0.551,0.438,0.969,0.438C264.373,127.848,264.57,127.803,264.758,127.715z"/>
	<path fill="#4D4D4F" d="M258.509,139.387l5.369-5.566h-5.16v-1.286h7.976v0.108l-5.248,5.611h5.039v1.266h-7.976V139.387z"/>
	<path fill="#4D4D4F" d="M258.598,145.26c0-0.572,0.131-1.056,0.428-1.507c0.178-0.286,0.418-0.539,0.684-0.737
		c0.297-0.22,0.482-0.317,0.968-0.494l0.431,1.121c-0.946,0.354-1.42,0.902-1.42,1.686c0,0.726,0.474,1.23,1.145,1.23
		c0.495,0,0.891-0.298,1.166-0.869l0.429-0.892c0.595-1.231,1.188-1.728,2.124-1.728c1.199,0,2.068,0.957,2.068,2.277
		c0,0.461-0.11,0.944-0.286,1.285c-0.198,0.387-0.483,0.684-0.979,1.023l-0.692-0.969c0.362-0.23,0.483-0.33,0.616-0.508
		c0.164-0.209,0.265-0.494,0.265-0.812c0-0.597-0.343-0.979-0.858-0.979c-0.187,0-0.328,0.055-0.482,0.164
		c-0.198,0.146-0.319,0.319-0.528,0.748l-0.374,0.748c-0.385,0.771-0.406,0.825-0.682,1.122c-0.44,0.483-0.979,0.728-1.617,0.728
		C259.598,147.9,258.598,146.8,258.598,145.26z"/>
</g>
<path fill="#FFFFFF" d="M405.471,147.493c-0.372,1.946-0.824,3.812-2.167,4.787c-0.414-2.941,0.609-5.152,1.083-7.499
	c-0.811-1.364,0.101-4.107,1.81-3.432c2.103,0.832-1.821,5.07,0.812,5.602c2.751,0.552,3.874-4.771,2.167-6.506
	c-2.463-2.5-7.174-0.055-6.593,3.523c0.139,0.875,1.044,1.141,0.36,2.35c-1.577-0.352-2.048-1.594-1.986-3.252
	c0.097-2.715,2.438-4.615,4.786-4.879c2.97-0.332,5.757,1.09,6.144,3.886c0.436,3.153-1.34,6.567-4.518,6.323
	C406.506,148.329,406.146,147.902,405.471,147.493"/>
<path fill="#FFFFFF" d="M372.824,140.162c-0.602,0.266-1.243,0.445-1.917,0.527c0.688-0.416,1.218-1.069,1.467-1.851
	c-0.646,0.384-1.359,0.66-2.12,0.812c-0.609-0.647-1.478-1.056-2.438-1.056c-1.846,0-3.34,1.495-3.34,3.341
	c0,0.26,0.029,0.517,0.087,0.762c-2.774-0.139-5.235-1.469-6.884-3.489c-0.287,0.492-0.451,1.065-0.451,1.679
	c0,1.159,0.59,2.182,1.484,2.78c-0.548-0.019-1.062-0.167-1.514-0.418c0,0.015,0,0.028,0,0.042c0,1.619,1.15,2.97,2.68,3.275
	c-0.28,0.076-0.576,0.117-0.881,0.117c-0.214,0-0.423-0.021-0.628-0.061c0.425,1.326,1.659,2.292,3.12,2.316
	c-1.145,0.896-2.583,1.432-4.147,1.432c-0.27,0-0.536-0.018-0.797-0.046c1.479,0.946,3.233,1.5,5.12,1.5
	c6.145,0,9.5-5.089,9.5-9.502c0-0.146-0.003-0.29-0.009-0.433C371.81,141.418,372.377,140.831,372.824,140.162"/>
<path fill="#FFFFFF" d="M344.892,152.28h-2.924v-7.07h-1.464v-2.438h1.464v-1.463c0-1.985,0.824-3.168,3.168-3.168h1.953v2.438
	h-1.219c-0.913,0-0.974,0.34-0.974,0.976l-0.005,1.221h2.212l-0.26,2.438h-1.952V152.28L344.892,152.28z"/>
<path fill="#FFFFFF" d="M427.345,142.443c-1.558,0-2.82,1.227-2.82,2.735c0,1.513,1.264,2.734,2.82,2.734
	c1.562,0,2.822-1.224,2.822-2.734C430.167,143.67,428.905,142.443,427.345,142.443 M432.77,144.126h-1.234
	c0.117,0.382,0.18,0.786,0.18,1.207c0,2.337-1.955,4.231-4.369,4.231c-2.412,0-4.367-1.896-4.367-4.231
	c0-0.421,0.062-0.825,0.182-1.207h-1.291v5.937c0,0.308,0.251,0.561,0.559,0.561h9.785c0.309,0,0.559-0.253,0.559-0.561v-5.937
	H432.77z M430.543,139.745c-0.348,0-0.633,0.285-0.633,0.632v1.516c0,0.349,0.285,0.631,0.633,0.631h1.587
	c0.349,0,0.632-0.283,0.632-0.631v-1.516c0-0.348-0.283-0.632-0.632-0.632H430.543z M422.11,138.184h10.443
	c0.992,0,1.806,0.812,1.806,1.803v10.447c0,0.992-0.812,1.803-1.806,1.803H422.11c-0.993,0-1.805-0.811-1.805-1.803v-10.447
	C420.307,138.995,421.117,138.184,422.11,138.184"/>
<path fill="#FFFFFF" d="M384.293,137.71c0.679,0,1.359,0,2.038,0c0.024,1.058-0.051,2.22,0.039,3.213
	c1.032,0.091,2.233,0.015,3.332,0.038c0,0.877,0,1.751,0,2.627c-1.111,0-2.222,0-3.332,0c-0.07,0.854-0.039,1.796-0.039,2.743
	c0,0.929-0.113,1.967,0.157,2.626c0.507,1.234,2.396,0.482,3.332,0.275c0,1.018,0,2.037,0,3.056
	c-2.879,0.914-6.603,0.46-6.938-2.547c-0.221-1.968,0.126-4.005-0.04-6.153c-0.509,0-1.02,0-1.526,0c0-0.875,0-1.75,0-2.627
	c1.894-0.116,2.615-1.404,2.897-3.135C384.214,137.761,384.244,137.727,384.293,137.71z"/>
<path fill="#4E4D50" d="M405.471,127.288c-0.372,1.946-0.824,3.812-2.167,4.787c-0.414-2.941,0.609-5.152,1.083-7.499
	c-0.811-1.364,0.101-4.107,1.81-3.432c2.103,0.832-1.821,5.07,0.812,5.602c2.751,0.552,3.874-4.771,2.167-6.506
	c-2.463-2.5-7.174-0.055-6.593,3.525c0.139,0.875,1.044,1.14,0.36,2.348c-1.577-0.35-2.048-1.594-1.986-3.252
	c0.097-2.715,2.438-4.615,4.786-4.879c2.97-0.332,5.757,1.091,6.144,3.886c0.436,3.153-1.34,6.567-4.518,6.323
	C406.506,128.124,406.146,127.698,405.471,127.288"/>
<path fill="#4E4D50" d="M372.824,119.957c-0.602,0.266-1.243,0.445-1.917,0.527c0.688-0.416,1.218-1.069,1.467-1.851
	c-0.646,0.384-1.359,0.66-2.12,0.812c-0.609-0.647-1.478-1.055-2.438-1.055c-1.846,0-3.34,1.494-3.34,3.34
	c0,0.261,0.029,0.517,0.087,0.762c-2.774-0.139-5.235-1.469-6.884-3.489c-0.287,0.492-0.451,1.065-0.451,1.679
	c0,1.159,0.59,2.183,1.484,2.78c-0.548-0.019-1.062-0.167-1.514-0.418c0,0.015,0,0.028,0,0.042c0,1.619,1.15,2.971,2.68,3.275
	c-0.28,0.076-0.576,0.117-0.881,0.117c-0.214,0-0.423-0.021-0.628-0.061c0.425,1.326,1.659,2.292,3.12,2.316
	c-1.145,0.896-2.583,1.432-4.147,1.432c-0.27,0-0.536-0.018-0.797-0.046c1.479,0.946,3.233,1.5,5.12,1.5
	c6.145,0,9.5-5.088,9.5-9.502c0-0.146-0.003-0.29-0.009-0.433C371.81,121.213,372.377,120.626,372.824,119.957"/>
<path fill="#4E4D50" d="M344.892,132.075h-2.924v-7.07h-1.464v-2.438h1.464v-1.463c0-1.985,0.824-3.168,3.168-3.168h1.953v2.438
	h-1.219c-0.913,0-0.974,0.34-0.974,0.978l-0.005,1.219h2.212l-0.26,2.438h-1.952V132.075L344.892,132.075z"/>
<path fill="#4E4D50" d="M427.345,122.239c-1.558,0-2.82,1.226-2.82,2.735c0,1.512,1.264,2.733,2.82,2.733
	c1.562,0,2.822-1.224,2.822-2.733S428.905,122.239,427.345,122.239 M432.77,123.921h-1.234c0.117,0.382,0.18,0.786,0.18,1.207
	c0,2.337-1.955,4.231-4.369,4.231c-2.412,0-4.367-1.896-4.367-4.231c0-0.421,0.062-0.825,0.182-1.207h-1.291v5.937
	c0,0.308,0.251,0.561,0.559,0.561h9.785c0.309,0,0.559-0.253,0.559-0.561v-5.937H432.77z M430.543,119.54
	c-0.348,0-0.633,0.285-0.633,0.632v1.516c0,0.349,0.285,0.631,0.633,0.631h1.587c0.349,0,0.632-0.283,0.632-0.631v-1.516
	c0-0.348-0.283-0.632-0.632-0.632H430.543z M422.11,117.979h10.443c0.992,0,1.806,0.812,1.806,1.805v10.445
	c0,0.992-0.812,1.805-1.806,1.805H422.11c-0.993,0-1.805-0.812-1.805-1.805v-10.445C420.307,118.79,421.117,117.979,422.11,117.979"
	/>
<path fill="#4E4D50" d="M384.293,117.505c0.679,0,1.359,0,2.038,0c0.024,1.058-0.051,2.22,0.039,3.213
	c1.032,0.091,2.233,0.015,3.332,0.038c0,0.877,0,1.751,0,2.627c-1.111,0-2.222,0-3.332,0c-0.07,0.854-0.039,1.797-0.039,2.743
	c0,0.929-0.113,1.967,0.157,2.626c0.507,1.234,2.396,0.482,3.332,0.275c0,1.018,0,2.037,0,3.056
	c-2.879,0.914-6.603,0.46-6.938-2.547c-0.221-1.968,0.126-4.005-0.04-6.153c-0.509,0-1.02,0-1.526,0c0-0.875,0-1.75,0-2.627
	c1.894-0.115,2.615-1.404,2.897-3.135C384.214,117.557,384.244,117.521,384.293,117.505z"/>
<g>
	<path fill="#4E4D50" d="M327.263,11.512c0.199-0.419,0.298-0.848,0.298-1.311c0-1.63-1.188-2.82-2.81-2.82
		c-1.619,0-2.809,1.179-2.809,2.766c0,0.473,0.12,0.991,0.341,1.443c0.108,0.22,0.176,0.33,0.364,0.594h-1.399
		c-0.055-0.121-0.099-0.198-0.132-0.253c-0.253-0.518-0.375-1.113-0.375-1.796c0-2.379,1.686-4.12,3.999-4.12
		c2.325,0,4.01,1.785,4.01,4.241c0,0.419-0.056,0.871-0.166,1.245c-0.078,0.275-0.132,0.408-0.331,0.716h-1.465
		C327.043,11.908,327.131,11.776,327.263,11.512z"/>
	<path fill="#4E4D50" d="M320.688,19.239c0-2.236,1.808-4.032,4.055-4.032c2.269,0,4.032,1.785,4.032,4.087
		c0,2.225-1.785,4.021-4.012,4.021C322.482,23.314,320.688,21.519,320.688,19.239z M327.528,19.305c0-1.542-1.201-2.732-2.776-2.732
		c-1.607,0-2.853,1.168-2.853,2.677s1.223,2.721,2.754,2.721C326.305,21.971,327.528,20.836,327.528,19.305z"/>
	<path fill="#4E4D50" d="M320.632,33.444l5.376-5.574h-5.167v-1.289h7.986v0.11l-5.255,5.618h5.045v1.267h-7.986L320.632,33.444
		L320.632,33.444z"/>
	<path fill="#4E4D50" d="M320.632,44.014l5.376-5.574h-5.167v-1.289h7.986v0.11l-5.255,5.618h5.045v1.267h-7.986L320.632,44.014
		L320.632,44.014z"/>
	<path fill="#4E4D50" d="M320.841,47.842h7.777v4.417h-1.201v-3.096h-1.772v3.063h-1.2v-3.063h-2.401v3.129h-1.201L320.841,47.842
		L320.841,47.842z"/>
	<path fill="#4E4D50" d="M327.263,60.901c0.199-0.419,0.298-0.848,0.298-1.311c0-1.63-1.188-2.82-2.81-2.82
		c-1.619,0-2.809,1.179-2.809,2.765c0,0.474,0.12,0.992,0.341,1.443c0.108,0.22,0.176,0.331,0.364,0.595h-1.399
		c-0.055-0.121-0.099-0.198-0.132-0.253c-0.253-0.518-0.375-1.113-0.375-1.796c0-2.379,1.686-4.12,3.999-4.12
		c2.325,0,4.01,1.785,4.01,4.241c0,0.419-0.056,0.871-0.166,1.245c-0.078,0.275-0.132,0.408-0.331,0.716h-1.465
		C327.043,61.297,327.131,61.165,327.263,60.901z"/>
	<path fill="#4E4D50" d="M327.417,67.482h-6.576v-1.311h6.576v-1.829h1.201v4.969h-1.201V67.482z"/>
</g>
</svg>
