<?xml version="1.0" encoding="utf-8"?>
<!-- Generator: Adobe Illustrator 16.0.0, SVG Export Plug-In . SVG Version: 6.00 Build 0)  -->
<!DOCTYPE svg PUBLIC "-//W3C//DTD SVG 1.1//EN" "http://www.w3.org/Graphics/SVG/1.1/DTD/svg11.dtd">
<svg version="1.1" id="Layer_1" xmlns="http://www.w3.org/2000/svg" xmlns:xlink="http://www.w3.org/1999/xlink" x="0px" y="0px"
	 width="599.286px" height="161.797px" viewBox="0 0 599.286 161.797" enable-background="new 0 0 599.286 161.797"
	 xml:space="preserve">
<polygon fill="#DCDDDD" points="52.094,13.031 46.094,13.031 46.094,7.031 42.094,7.031 42.094,13.031 36.094,13.031 36.094,17.031 
	42.094,17.031 42.094,23.031 46.094,23.031 46.094,17.031 52.094,17.031 "/>
<rect x="60.079" y="13.031" fill="#DCDDDD" width="16" height="4"/>
<polygon fill="#4E4D50" points="52.094,42.84 46.094,42.84 46.094,36.84 42.094,36.84 42.094,42.84 36.094,42.84 36.094,46.84 
	42.094,46.84 42.094,52.84 46.094,52.84 46.094,46.84 52.094,46.84 "/>
<rect x="60.079" y="42.84" fill="#4E4D50" width="16" height="4"/>
<rect x="246.917" y="7.015" fill="#4D4D4F" width="4" height="141.886"/>
<rect x="282" y="7.015" fill="#4D4D4F" width="4" height="109.193"/>
<rect x="311.632" y="7.015" fill="#4D4D4F" width="4" height="52.58"/>
<rect x="342.544" y="7.015" fill="#4D4D4F" width="4" height="30.372"/>
<rect x="378.277" y="7.015" fill="#4D4D4F" width="4" height="34.144"/>
<rect x="577.148" y="7.015" fill="#DCDDDD" width="4" height="32.12"/>
<path fill="#DCDDDD" d="M26.582,23.488l-6.17-5.808c1.65-2.758,1.229-6.395-1.206-8.689c-1.304-1.227-3.007-1.903-4.797-1.903
	c-1.922,0-3.78,0.802-5.098,2.201C6.666,12.1,6.8,16.539,9.61,19.185c1.304,1.227,3.007,1.903,4.797,1.903
	c1.415,0,2.792-0.438,3.947-1.225l6.171,5.81L26.582,23.488z M14.407,18.087c-1.022,0-1.996-0.386-2.74-1.087
	c-1.606-1.512-1.683-4.048-0.171-5.654c0.764-0.811,1.798-1.258,2.913-1.258c1.022,0,1.996,0.386,2.74,1.087
	c1.606,1.513,1.683,4.049,0.171,5.655C16.557,17.641,15.522,18.087,14.407,18.087z"/>
<path fill="#4E4D50" d="M26.582,52.502l-6.17-5.808c1.65-2.758,1.229-6.395-1.206-8.689c-1.304-1.227-3.007-1.903-4.797-1.903
	c-1.922,0-3.78,0.802-5.098,2.201c-2.646,2.811-2.511,7.25,0.299,9.896c1.304,1.227,3.007,1.903,4.797,1.903
	c1.415,0,2.792-0.438,3.947-1.225l6.171,5.81L26.582,52.502z M14.407,47.102c-1.022,0-1.996-0.386-2.74-1.087
	c-1.606-1.512-1.683-4.048-0.171-5.654c0.764-0.811,1.798-1.258,2.913-1.258c1.022,0,1.996,0.386,2.74,1.087
	c1.606,1.513,1.683,4.049,0.171,5.655C16.557,46.655,15.522,47.102,14.407,47.102z"/>
<g>
	<polygon fill="#4E4D50" points="96.024,6.088 121.024,31.088 96.024,56.088 	"/>
	<g>
		<polygon fill="#FFFFFF" points="107.857,39.89 108.357,39.39 100.408,31.441 108.357,23.492 107.857,22.992 99.408,31.441 		"/>
		<rect x="99.908" y="31.088" fill="#FFFFFF" width="16.818" height="0.707"/>
	</g>
</g>
<g>
	<polygon fill="#4E4D50" points="159.5,56.088 134.5,31.088 159.5,6.088 	"/>
	<g>
		<polygon fill="#FFFFFF" points="147.667,22.286 147.167,22.786 155.117,30.734 147.167,38.684 147.667,39.184 156.117,30.734 		
			"/>
		<rect x="138.798" y="30.381" fill="#FFFFFF" width="16.818" height="0.707"/>
	</g>
</g>
<g>
	<path fill="#4D4D4F" d="M208.667,9.962v21h21v-21H208.667z M228.667,29.962h-19v-19h19V29.962z"/>
	<polygon fill="#4D4D4F" points="218.667,25.462 219.667,25.462 219.667,20.962 224.167,20.962 224.167,19.962 219.667,19.962 
		219.667,15.462 218.667,15.462 218.667,19.962 214.167,19.962 214.167,20.962 218.667,20.962 	"/>
	<path fill="#4D4D4F" d="M208.667,55.628h21v-21h-21V55.628z M209.667,35.628h19v19h-19V35.628z"/>
	<rect x="214.167" y="44.628" fill="#4D4D4F" width="10" height="1"/>
</g>
<polygon fill="#4D4D4F" points="192.302,27.18 188,22.878 192.301,18.577 191.594,17.87 187.293,22.171 182.991,17.87 
	182.284,18.577 186.586,22.878 182.284,27.18 182.991,27.887 187.293,23.585 191.595,27.887 "/>
<g>
	<path fill="#4D4D4F" d="M386.31,9.754c0-0.572,0.132-1.056,0.429-1.507c0.176-0.286,0.418-0.539,0.682-0.737
		c0.297-0.22,0.484-0.319,0.968-0.495l0.429,1.122c-0.946,0.352-1.419,0.902-1.419,1.683c0,0.726,0.473,1.232,1.144,1.232
		c0.495,0,0.891-0.297,1.166-0.869l0.429-0.891c0.594-1.232,1.188-1.728,2.124-1.728c1.199,0,2.068,0.958,2.068,2.277
		c0,0.462-0.11,0.946-0.286,1.288c-0.198,0.385-0.484,0.682-0.979,1.023l-0.693-0.968c0.363-0.231,0.484-0.33,0.616-0.506
		c0.165-0.209,0.264-0.495,0.264-0.814c0-0.594-0.341-0.979-0.858-0.979c-0.187,0-0.33,0.055-0.484,0.165
		c-0.198,0.143-0.319,0.319-0.528,0.748l-0.374,0.748c-0.385,0.771-0.407,0.825-0.682,1.123c-0.44,0.484-0.979,0.726-1.617,0.726
		C387.311,12.395,386.31,11.294,386.31,9.754z"/>
	<path fill="#4D4D4F" d="M386.431,20.479h3.521v-3.608h-3.521v-1.309h7.767v1.32h-3.037v3.597h3.037v1.31h-7.767V20.479z"/>
	<path fill="#4D4D4F" d="M386.277,29.07c0-2.233,1.804-4.027,4.048-4.027c2.267,0,4.026,1.782,4.026,4.082
		c0,2.222-1.782,4.016-4.004,4.016C388.07,33.141,386.277,31.347,386.277,29.07z M393.109,29.136c0-1.541-1.199-2.729-2.772-2.729
		c-1.606,0-2.85,1.166-2.85,2.673s1.221,2.717,2.75,2.717C391.888,31.798,393.109,30.666,393.109,29.136z"/>
	<path fill="#4D4D4F" d="M389.864,39.938c-0.077-0.154-0.132-0.33-0.176-0.517c-0.077-0.286-0.088-0.506-0.088-0.99v-0.715h-3.168
		v-1.32h7.767v1.925c0,0.814-0.088,1.331-0.297,1.738c-0.352,0.704-1.067,1.1-1.947,1.1
		C391.019,41.159,390.238,40.708,389.864,39.938z M393.054,38.397v-0.682H390.7v0.693c0,0.957,0.396,1.441,1.199,1.441
		C392.669,39.85,393.054,39.376,393.054,38.397z"/>
</g>
<g>
	<path fill="#DCDDDD" d="M591.661,12.504c0.198-0.418,0.297-0.847,0.297-1.309c0-1.628-1.188-2.816-2.806-2.816
		s-2.805,1.177-2.805,2.761c0,0.473,0.121,0.99,0.341,1.441c0.11,0.22,0.176,0.33,0.362,0.594h-1.396
		c-0.055-0.121-0.1-0.198-0.133-0.253c-0.252-0.517-0.373-1.111-0.373-1.793c0-2.376,1.683-4.115,3.993-4.115
		c2.321,0,4.005,1.782,4.005,4.236c0,0.418-0.055,0.869-0.166,1.243c-0.076,0.275-0.131,0.407-0.329,0.715h-1.464
		C591.441,12.9,591.529,12.769,591.661,12.504z"/>
	<path fill="#DCDDDD" d="M585.247,22.02l1.826-0.771v-2.926l-1.826-0.858v-1.452l7.976,3.851v0.099l-7.976,3.521V22.02z
		 M590.527,19.863l-2.266-1.023v1.937L590.527,19.863z"/>
	<path fill="#DCDDDD" d="M585.247,30.181l3.245-2.343h-3.245v-1.309h7.767v2.002c0,1.1-0.099,1.562-0.429,2.013
		c-0.396,0.55-1.013,0.825-1.793,0.825c-1.255,0-2.068-0.715-2.255-1.991l-3.29,2.508V30.181z M591.287,29.917
		c0.143-0.077,0.275-0.176,0.363-0.297c0.176-0.242,0.23-0.495,0.23-1.034v-0.737h-2.376v0.627c0,0.198,0,0.352,0.011,0.451
		c0.012,0.253,0.088,0.506,0.209,0.682c0.209,0.286,0.551,0.44,0.969,0.44C590.902,30.049,591.1,30.005,591.287,29.917z"/>
	<path fill="#DCDDDD" d="M591.814,37.309h-6.567V36h6.567v-1.826h1.199v4.961h-1.199V37.309z"/>
</g>
<rect x="577.148" y="51.25" fill="#4E4D50" width="4" height="32.12"/>
<g>
	<path fill="#4E4D50" d="M591.661,56.739c0.198-0.418,0.297-0.847,0.297-1.309c0-1.628-1.188-2.816-2.806-2.816
		s-2.805,1.177-2.805,2.761c0,0.473,0.121,0.99,0.341,1.441c0.11,0.22,0.176,0.33,0.362,0.594h-1.396
		c-0.055-0.121-0.1-0.198-0.133-0.253c-0.252-0.517-0.373-1.111-0.373-1.793c0-2.376,1.683-4.115,3.993-4.115
		c2.321,0,4.005,1.782,4.005,4.236c0,0.418-0.055,0.869-0.166,1.243c-0.076,0.275-0.131,0.407-0.329,0.715h-1.464
		C591.441,57.135,591.529,57.003,591.661,56.739z"/>
	<path fill="#4E4D50" d="M585.247,66.254l1.826-0.771v-2.926l-1.826-0.858v-1.452l7.976,3.851v0.099l-7.976,3.521V66.254z
		 M590.527,64.098l-2.266-1.023v1.937L590.527,64.098z"/>
	<path fill="#4E4D50" d="M585.247,74.416l3.245-2.343h-3.245v-1.309h7.767v2.002c0,1.1-0.099,1.562-0.429,2.013
		c-0.396,0.55-1.013,0.825-1.793,0.825c-1.255,0-2.068-0.715-2.255-1.991l-3.29,2.508V74.416z M591.287,74.152
		c0.143-0.077,0.275-0.176,0.363-0.297c0.176-0.242,0.23-0.495,0.23-1.034v-0.737h-2.376v0.627c0,0.198,0,0.352,0.011,0.451
		c0.012,0.253,0.088,0.506,0.209,0.682c0.209,0.286,0.551,0.44,0.969,0.44C590.902,74.284,591.1,74.24,591.287,74.152z"/>
	<path fill="#4E4D50" d="M591.814,81.543h-6.567v-1.309h6.567v-1.826h1.199v4.961h-1.199V81.543z"/>
</g>
<g>
	<path fill="#4D4D4F" d="M350.753,7.015h7.767v1.32h-7.767V7.015z"/>
	<path fill="#4D4D4F" d="M350.544,18.764l5.369-5.567h-5.16V11.91h7.976v0.11l-5.248,5.611h5.039v1.265h-7.976V18.764z"/>
	<path fill="#4D4D4F" d="M357.321,23.79h-1.793v2.508h-1.177v-2.497h-3.598v-1.342h7.767v3.883h-1.199V23.79z"/>
	<path fill="#4D4D4F" d="M350.599,33.316c0-2.233,1.804-4.027,4.048-4.027c2.267,0,4.026,1.782,4.026,4.082
		c0,2.222-1.782,4.016-4.004,4.016C352.392,37.386,350.599,35.593,350.599,33.316z M357.431,33.382c0-1.541-1.199-2.729-2.772-2.729
		c-1.606,0-2.85,1.166-2.85,2.673s1.221,2.717,2.75,2.717C356.21,36.044,357.431,34.911,357.431,33.382z"/>
</g>
<g>
	<path fill="#4D4D4F" d="M326.541,8.346h-1.793v2.508h-1.177V8.357h-3.598V7.015h7.767v3.883h-1.199V8.346z"/>
	<path fill="#4D4D4F" d="M319.819,17.872c0-2.233,1.804-4.026,4.048-4.026c2.267,0,4.026,1.782,4.026,4.082
		c0,2.222-1.782,4.016-4.004,4.016C321.612,21.942,319.819,20.149,319.819,17.872z M326.65,17.938c0-1.541-1.199-2.729-2.772-2.729
		c-1.606,0-2.85,1.166-2.85,2.673s1.221,2.717,2.75,2.717C325.43,20.6,326.65,19.467,326.65,17.938z"/>
	<path fill="#4D4D4F" d="M319.973,25.197h7.767v1.32h-6.557v2.244h-1.21V25.197z"/>
	<path fill="#4D4D4F" d="M319.973,32.083h7.767v1.32h-6.557v2.244h-1.21V32.083z"/>
	<path fill="#4D4D4F" d="M319.819,42.116c0-2.233,1.804-4.026,4.048-4.026c2.267,0,4.026,1.782,4.026,4.082
		c0,2.222-1.782,4.016-4.004,4.016C321.612,46.187,319.819,44.393,319.819,42.116z M326.65,42.182c0-1.541-1.199-2.729-2.772-2.729
		c-1.606,0-2.85,1.166-2.85,2.673s1.221,2.717,2.75,2.717C325.43,44.844,326.65,43.711,326.65,42.182z"/>
	<path fill="#4D4D4F" d="M319.632,56.294v-0.099l5.094-2.134l-5.094-2.079v-0.099l8.108-3.51v1.475l-5.138,2.112l5.391,2.002v0.088
		l-5.335,2.179l5.083,1.892v1.474L319.632,56.294z"/>
</g>
<g>
	<path fill="#4D4D4F" d="M296.497,12.504c0.198-0.418,0.297-0.847,0.297-1.309c0-1.628-1.188-2.816-2.805-2.816
		c-1.618,0-2.806,1.177-2.806,2.761c0,0.473,0.121,0.99,0.341,1.441c0.11,0.22,0.176,0.33,0.363,0.594h-1.397
		c-0.055-0.121-0.099-0.198-0.132-0.253c-0.253-0.517-0.374-1.111-0.374-1.793c0-2.376,1.683-4.115,3.994-4.115
		c2.321,0,4.004,1.782,4.004,4.236c0,0.418-0.055,0.869-0.165,1.243c-0.077,0.275-0.132,0.407-0.33,0.715h-1.463
		C296.277,12.9,296.365,12.769,296.497,12.504z"/>
	<path fill="#4D4D4F" d="M291.073,21.92c-0.737-0.517-1.144-1.408-1.144-2.53c0-1.034,0.264-1.728,0.88-2.277
		c0.528-0.484,1.067-0.649,2.112-0.649h4.929v1.32h-4.555c-1.012,0-1.408,0.11-1.76,0.484c-0.286,0.297-0.407,0.66-0.407,1.221
		c0,0.528,0.165,0.936,0.484,1.221c0.341,0.297,0.759,0.396,1.65,0.396h4.587v1.298h-4.841
		C292.195,22.404,291.557,22.25,291.073,21.92z"/>
	<path fill="#4D4D4F" d="M289.962,28.113c0-0.572,0.132-1.056,0.429-1.507c0.176-0.286,0.418-0.539,0.682-0.737
		c0.297-0.22,0.484-0.319,0.968-0.495l0.429,1.122c-0.946,0.352-1.419,0.902-1.419,1.683c0,0.726,0.473,1.232,1.144,1.232
		c0.495,0,0.891-0.297,1.166-0.869l0.429-0.891c0.594-1.232,1.188-1.728,2.124-1.728c1.199,0,2.068,0.958,2.068,2.277
		c0,0.462-0.11,0.946-0.286,1.288c-0.198,0.385-0.484,0.682-0.979,1.023l-0.693-0.968c0.363-0.231,0.484-0.33,0.616-0.506
		c0.165-0.209,0.264-0.495,0.264-0.814c0-0.594-0.341-0.979-0.858-0.979c-0.187,0-0.33,0.055-0.484,0.165
		c-0.198,0.143-0.319,0.319-0.528,0.748l-0.374,0.748c-0.385,0.771-0.407,0.825-0.682,1.123c-0.44,0.484-0.979,0.726-1.617,0.726
		C290.963,30.753,289.962,29.653,289.962,28.113z"/>
	<path fill="#4D4D4F" d="M296.651,36.495h-6.568v-1.309h6.568v-1.826h1.199v4.961h-1.199V36.495z"/>
	<path fill="#4D4D4F" d="M289.929,44.577c0-2.233,1.804-4.026,4.048-4.026c2.267,0,4.026,1.782,4.026,4.082
		c0,2.222-1.782,4.016-4.004,4.016C291.722,48.648,289.929,46.854,289.929,44.577z M296.761,44.644c0-1.541-1.199-2.729-2.772-2.729
		c-1.606,0-2.85,1.166-2.85,2.673s1.221,2.717,2.75,2.717C295.54,47.306,296.761,46.173,296.761,44.644z"/>
	<path fill="#4D4D4F" d="M290.083,58.822l4.412-0.891l-4.632-2.178v-0.11l4.621-2.036l-4.4-0.946v-1.31l7.976,1.728v0.11
		l-5.589,2.585l5.578,2.574v0.11l-7.965,1.716V58.822z"/>
	<path fill="#4D4D4F" d="M290.083,63.31h7.767v4.412h-1.199V64.63h-1.771v3.058h-1.199V64.63h-2.398v3.124h-1.199V63.31z"/>
	<path fill="#4D4D4F" d="M290.083,74.815l3.246-2.343h-3.246v-1.309h7.767v2.002c0,1.1-0.099,1.562-0.429,2.013
		c-0.396,0.55-1.012,0.825-1.793,0.825c-1.254,0-2.068-0.715-2.255-1.991l-3.29,2.508V74.815z M296.123,74.552
		c0.143-0.077,0.275-0.176,0.363-0.297c0.176-0.242,0.231-0.495,0.231-1.034v-0.737h-2.376v0.627c0,0.198,0,0.352,0.011,0.451
		c0.011,0.253,0.088,0.506,0.209,0.682c0.209,0.286,0.55,0.44,0.968,0.44C295.738,74.684,295.936,74.64,296.123,74.552z"/>
	<path fill="#4D4D4F" d="M296.497,89.412c0.198-0.418,0.297-0.847,0.297-1.309c0-1.628-1.188-2.816-2.805-2.816
		c-1.618,0-2.806,1.177-2.806,2.761c0,0.473,0.121,0.99,0.341,1.441c0.11,0.22,0.176,0.33,0.363,0.594h-1.397
		c-0.055-0.121-0.099-0.198-0.132-0.253c-0.253-0.517-0.374-1.111-0.374-1.793c0-2.376,1.683-4.115,3.994-4.115
		c2.321,0,4.004,1.782,4.004,4.236c0,0.418-0.055,0.869-0.165,1.243c-0.077,0.275-0.132,0.407-0.33,0.715h-1.463
		C296.277,89.808,296.365,89.676,296.497,89.412z"/>
	<path fill="#4D4D4F" d="M290.083,98.927l1.826-0.771V95.23l-1.826-0.858V92.92l7.976,3.85v0.099l-7.976,3.521V98.927z
		 M295.364,96.771l-2.266-1.023v1.937L295.364,96.771z"/>
	<path fill="#4D4D4F" d="M290.083,107.089l3.246-2.343h-3.246v-1.309h7.767v2.002c0,1.1-0.099,1.562-0.429,2.013
		c-0.396,0.55-1.012,0.825-1.793,0.825c-1.254,0-2.068-0.715-2.255-1.991l-3.29,2.508V107.089z M296.123,106.825
		c0.143-0.077,0.275-0.176,0.363-0.297c0.176-0.242,0.231-0.495,0.231-1.034v-0.737h-2.376v0.627c0,0.198,0,0.352,0.011,0.451
		c0.011,0.253,0.088,0.506,0.209,0.682c0.209,0.286,0.55,0.44,0.968,0.44C295.738,106.957,295.936,106.913,296.123,106.825z"/>
	<path fill="#4D4D4F" d="M290.083,111.763h7.767v4.412h-1.199v-3.091h-1.771v3.058h-1.199v-3.058h-2.398v3.125h-1.199V111.763z"/>
</g>
<g>
	<path fill="#4D4D4F" d="M257.597,9.754c0-0.572,0.132-1.056,0.429-1.507c0.176-0.286,0.418-0.539,0.682-0.737
		c0.297-0.22,0.484-0.319,0.968-0.495l0.429,1.122c-0.946,0.352-1.419,0.902-1.419,1.683c0,0.726,0.473,1.232,1.144,1.232
		c0.495,0,0.891-0.297,1.166-0.869l0.429-0.891c0.594-1.232,1.188-1.728,2.124-1.728c1.199,0,2.068,0.958,2.068,2.277
		c0,0.462-0.11,0.946-0.286,1.288c-0.198,0.385-0.484,0.682-0.979,1.023l-0.693-0.968c0.363-0.231,0.484-0.33,0.616-0.506
		c0.165-0.209,0.264-0.495,0.264-0.814c0-0.594-0.341-0.979-0.858-0.979c-0.187,0-0.33,0.055-0.484,0.165
		c-0.198,0.143-0.319,0.319-0.528,0.748l-0.374,0.748c-0.385,0.771-0.407,0.825-0.682,1.123c-0.44,0.484-0.979,0.726-1.617,0.726
		C258.598,12.395,257.597,11.294,257.597,9.754z"/>
	<path fill="#4D4D4F" d="M257.718,20.479h3.521v-3.608h-3.521v-1.309h7.767v1.32h-3.037v3.597h3.037v1.31h-7.767V20.479z"/>
	<path fill="#4D4D4F" d="M257.718,25.569h7.767v1.32h-7.767V25.569z"/>
	<path fill="#4D4D4F" d="M261.15,34.006c-0.077-0.154-0.132-0.33-0.176-0.517c-0.077-0.286-0.088-0.506-0.088-0.99v-0.715h-3.168
		v-1.32h7.767v1.925c0,0.814-0.088,1.331-0.297,1.738c-0.352,0.704-1.067,1.1-1.947,1.1
		C262.306,35.228,261.524,34.776,261.15,34.006z M264.341,32.466v-0.682h-2.354v0.693c0,0.957,0.396,1.441,1.199,1.441
		C263.956,33.918,264.341,33.445,264.341,32.466z"/>
	<path fill="#4D4D4F" d="M261.15,41.992c-0.077-0.154-0.132-0.33-0.176-0.517c-0.077-0.286-0.088-0.506-0.088-0.99V39.77h-3.168
		v-1.32h7.767v1.925c0,0.814-0.088,1.331-0.297,1.738c-0.352,0.704-1.067,1.1-1.947,1.1
		C262.306,43.213,261.524,42.762,261.15,41.992z M264.341,40.452V39.77h-2.354v0.693c0,0.957,0.396,1.441,1.199,1.441
		C263.956,41.904,264.341,41.431,264.341,40.452z"/>
	<path fill="#4D4D4F" d="M257.718,46.436h7.767v1.32h-7.767V46.436z"/>
	<path fill="#4D4D4F" d="M257.509,58.185l5.369-5.567h-5.16v-1.287h7.976v0.11l-5.248,5.611h5.039v1.265h-7.976V58.185z"/>
	<path fill="#4D4D4F" d="M259.797,69.02c-1.353-0.517-2.211-1.871-2.211-3.466c0-2.299,1.672-3.982,3.96-3.982
		c2.31,0,4.07,1.76,4.07,4.093c0,0.781-0.198,1.474-0.583,2.112c-0.264,0.429-0.418,0.627-0.913,1.1l-0.935-0.88
		c0.484-0.385,0.649-0.561,0.847-0.902c0.231-0.407,0.385-0.979,0.385-1.497c0-1.518-1.254-2.673-2.883-2.673
		c-1.584,0-2.761,1.111-2.761,2.629c0,0.627,0.187,1.155,0.572,1.628c0.385,0.462,0.748,0.671,1.375,0.759v-1.837h1.243v3.234H261.7
		C260.919,69.338,260.413,69.261,259.797,69.02z"/>
	<path fill="#4D4D4F" d="M257.718,82.659l0.913-0.759c-0.363-0.396-0.506-0.583-0.671-0.902c-0.231-0.429-0.341-0.836-0.341-1.287
		c0-1.342,1.012-2.432,2.267-2.432c0.473,0,0.935,0.176,1.254,0.451c0.231,0.209,0.462,0.473,0.715,0.825
		c0.099,0.143,0.22,0.308,0.352,0.506c0.33-0.286,0.473-0.396,0.704-0.528c0.308-0.165,0.583-0.242,0.902-0.242
		c0.946,0,1.672,0.803,1.672,1.87c0,1.067-0.715,1.893-1.639,1.893c-0.363,0-0.737-0.143-1.023-0.407
		c-0.286-0.253-0.407-0.407-0.77-0.924l-1.672,1.342l0.891,0.88l-0.836,0.77l-0.935-0.924l-1.782,1.419V82.659z M261.326,79.688
		c-0.297-0.451-0.418-0.605-0.671-0.825c-0.231-0.198-0.429-0.286-0.682-0.286c-0.649,0-1.243,0.572-1.243,1.221
		c0,0.154,0.033,0.308,0.099,0.451c0.077,0.176,0.176,0.319,0.462,0.649c0.044,0.055,0.11,0.132,0.209,0.242L261.326,79.688z
		 M264.44,80.172c0-0.363-0.242-0.627-0.572-0.627c-0.275,0-0.495,0.121-0.99,0.528c0.044,0.055,0.055,0.066,0.11,0.143
		c0.363,0.462,0.594,0.627,0.892,0.627C264.208,80.843,264.44,80.568,264.44,80.172z"/>
	<path fill="#4D4D4F" d="M257.718,95.958l3.246-2.343h-3.246v-1.309h7.767v2.002c0,1.1-0.099,1.562-0.429,2.013
		c-0.396,0.55-1.012,0.825-1.793,0.825c-1.254,0-2.068-0.715-2.255-1.991l-3.29,2.508V95.958z M263.758,95.694
		c0.143-0.077,0.275-0.176,0.363-0.297c0.176-0.242,0.231-0.495,0.231-1.034v-0.737h-2.376v0.627c0,0.198,0,0.352,0.011,0.451
		c0.011,0.253,0.088,0.506,0.209,0.682c0.209,0.286,0.55,0.44,0.968,0.44C263.373,95.826,263.571,95.782,263.758,95.694z"/>
	<path fill="#4D4D4F" d="M257.718,100.632h7.767v4.412h-1.199v-3.091h-1.771v3.058h-1.199v-3.058h-2.398v3.124h-1.199V100.632z"/>
	<path fill="#4D4D4F" d="M264.286,111.06h-6.568v-1.309h6.568v-1.826h1.199v4.961h-1.199V111.06z"/>
	<path fill="#4D4D4F" d="M258.708,121.312c-0.737-0.517-1.144-1.408-1.144-2.53c0-1.034,0.264-1.727,0.88-2.277
		c0.528-0.483,1.067-0.648,2.112-0.648h4.929v1.32h-4.555c-1.012,0-1.408,0.109-1.76,0.483c-0.286,0.297-0.407,0.66-0.407,1.222
		c0,0.527,0.165,0.935,0.484,1.221c0.341,0.297,0.759,0.396,1.65,0.396h4.587v1.298h-4.841
		C259.83,121.797,259.192,121.643,258.708,121.312z"/>
	<path fill="#4D4D4F" d="M257.718,128.979l3.246-2.344h-3.246v-1.31h7.767v2.003c0,1.1-0.099,1.562-0.429,2.013
		c-0.396,0.551-1.012,0.825-1.793,0.825c-1.254,0-2.068-0.715-2.255-1.991l-3.29,2.509V128.979z M263.758,128.715
		c0.143-0.077,0.275-0.176,0.363-0.297c0.176-0.242,0.231-0.495,0.231-1.034v-0.737h-2.376v0.627c0,0.198,0,0.353,0.011,0.451
		c0.011,0.253,0.088,0.507,0.209,0.683c0.209,0.286,0.55,0.439,0.968,0.439C263.373,128.847,263.571,128.803,263.758,128.715z"/>
	<path fill="#4D4D4F" d="M257.509,140.387l5.369-5.566h-5.16v-1.288h7.976v0.11l-5.248,5.611h5.039v1.265h-7.976V140.387z"/>
	<path fill="#4D4D4F" d="M257.597,146.26c0-0.572,0.132-1.056,0.429-1.507c0.176-0.286,0.418-0.539,0.682-0.737
		c0.297-0.22,0.484-0.319,0.968-0.495l0.429,1.122c-0.946,0.353-1.419,0.902-1.419,1.684c0,0.726,0.473,1.231,1.144,1.231
		c0.495,0,0.891-0.297,1.166-0.869l0.429-0.891c0.594-1.232,1.188-1.728,2.124-1.728c1.199,0,2.068,0.957,2.068,2.277
		c0,0.462-0.11,0.946-0.286,1.287c-0.198,0.386-0.484,0.683-0.979,1.023l-0.693-0.968c0.363-0.231,0.484-0.33,0.616-0.507
		c0.165-0.209,0.264-0.495,0.264-0.813c0-0.595-0.341-0.979-0.858-0.979c-0.187,0-0.33,0.055-0.484,0.165
		c-0.198,0.144-0.319,0.319-0.528,0.748l-0.374,0.748c-0.385,0.771-0.407,0.825-0.682,1.122c-0.44,0.484-0.979,0.727-1.617,0.727
		C258.598,148.9,257.597,147.8,257.597,146.26z"/>
</g>
<g>
	<path fill="#4D4D4F" d="M547.311,9.754c0-0.572,0.132-1.056,0.429-1.507c0.176-0.286,0.418-0.539,0.683-0.737
		c0.297-0.22,0.483-0.319,0.968-0.495l0.429,1.122c-0.945,0.352-1.419,0.902-1.419,1.683c0,0.726,0.474,1.232,1.144,1.232
		c0.496,0,0.892-0.297,1.166-0.869l0.43-0.891c0.594-1.232,1.188-1.728,2.123-1.728c1.199,0,2.068,0.958,2.068,2.277
		c0,0.462-0.109,0.946-0.285,1.288c-0.199,0.385-0.484,0.682-0.98,1.023l-0.692-0.968c0.362-0.231,0.483-0.33,0.616-0.506
		c0.165-0.209,0.264-0.495,0.264-0.814c0-0.594-0.341-0.979-0.857-0.979c-0.188,0-0.33,0.055-0.484,0.165
		c-0.198,0.143-0.319,0.319-0.528,0.748l-0.374,0.748c-0.385,0.771-0.407,0.825-0.682,1.123c-0.44,0.484-0.979,0.726-1.617,0.726
		C548.311,12.395,547.311,11.294,547.311,9.754z"/>
	<path fill="#4D4D4F" d="M547.432,20.479h3.52v-3.608h-3.52v-1.309h7.767v1.32h-3.036v3.597h3.036v1.31h-7.767V20.479z"/>
	<path fill="#4D4D4F" d="M547.277,29.07c0-2.233,1.805-4.027,4.049-4.027c2.266,0,4.025,1.782,4.025,4.082
		c0,2.222-1.781,4.016-4.004,4.016C549.07,33.141,547.277,31.347,547.277,29.07z M554.109,29.136c0-1.541-1.199-2.729-2.772-2.729
		c-1.606,0-2.85,1.166-2.85,2.673s1.222,2.717,2.751,2.717C552.889,31.798,554.109,30.666,554.109,29.136z"/>
	<path fill="#4D4D4F" d="M550.863,39.938c-0.076-0.154-0.132-0.33-0.176-0.517c-0.076-0.286-0.088-0.506-0.088-0.99v-0.715h-3.168
		v-1.32h7.767v1.925c0,0.814-0.088,1.331-0.297,1.738c-0.353,0.704-1.067,1.1-1.947,1.1
		C552.02,41.159,551.238,40.708,550.863,39.938z M554.055,38.397v-0.682h-2.355v0.693c0,0.957,0.396,1.441,1.199,1.441
		C553.669,39.85,554.055,39.376,554.055,38.397z"/>
</g>
<g>
	<path fill="#4D4D4F" d="M511.753,7.015h7.767v1.32h-7.767V7.015z"/>
	<path fill="#4D4D4F" d="M511.544,18.764l5.368-5.567h-5.159V11.91h7.976v0.11l-5.247,5.611h5.038v1.265h-7.976V18.764z"/>
	<path fill="#4D4D4F" d="M518.32,23.79h-1.793v2.508h-1.177v-2.497h-3.598v-1.342h7.767v3.883h-1.199V23.79z"/>
	<path fill="#4D4D4F" d="M511.6,33.316c0-2.233,1.804-4.027,4.048-4.027c2.267,0,4.026,1.782,4.026,4.082
		c0,2.222-1.782,4.016-4.004,4.016C513.393,37.386,511.6,35.593,511.6,33.316z M518.431,33.382c0-1.541-1.198-2.729-2.772-2.729
		c-1.605,0-2.85,1.166-2.85,2.673s1.222,2.717,2.751,2.717C517.21,36.044,518.431,34.911,518.431,33.382z"/>
</g>
<g>
	<path fill="#4D4D4F" d="M487.541,8.346h-1.793v2.508h-1.177V8.357h-3.598V7.015h7.767v3.883h-1.199V8.346z"/>
	<path fill="#4D4D4F" d="M480.819,17.872c0-2.233,1.804-4.026,4.048-4.026c2.267,0,4.026,1.782,4.026,4.082
		c0,2.222-1.782,4.016-4.004,4.016C482.612,21.942,480.819,20.149,480.819,17.872z M487.65,17.938c0-1.541-1.199-2.729-2.772-2.729
		c-1.606,0-2.85,1.166-2.85,2.673s1.221,2.717,2.75,2.717C486.43,20.6,487.65,19.467,487.65,17.938z"/>
	<path fill="#4D4D4F" d="M480.973,25.197h7.767v1.32h-6.557v2.244h-1.21V25.197z"/>
	<path fill="#4D4D4F" d="M480.973,32.083h7.767v1.32h-6.557v2.244h-1.21V32.083z"/>
	<path fill="#4D4D4F" d="M480.819,42.116c0-2.233,1.804-4.026,4.048-4.026c2.267,0,4.026,1.782,4.026,4.082
		c0,2.222-1.782,4.016-4.004,4.016C482.612,46.187,480.819,44.393,480.819,42.116z M487.65,42.182c0-1.541-1.199-2.729-2.772-2.729
		c-1.606,0-2.85,1.166-2.85,2.673s1.221,2.717,2.75,2.717C486.43,44.844,487.65,43.711,487.65,42.182z"/>
	<path fill="#4D4D4F" d="M480.632,56.294v-0.099l5.094-2.134l-5.094-2.079v-0.099l8.108-3.51v1.475l-5.138,2.112l5.391,2.002v0.088
		l-5.335,2.179l5.083,1.892v1.474L480.632,56.294z"/>
</g>
<g>
	<path fill="#4D4D4F" d="M457.497,12.504c0.198-0.418,0.297-0.847,0.297-1.309c0-1.628-1.188-2.816-2.805-2.816
		c-1.618,0-2.806,1.177-2.806,2.761c0,0.473,0.121,0.99,0.341,1.441c0.11,0.22,0.176,0.33,0.363,0.594h-1.397
		c-0.055-0.121-0.099-0.198-0.132-0.253c-0.253-0.517-0.374-1.111-0.374-1.793c0-2.376,1.683-4.115,3.994-4.115
		c2.321,0,4.004,1.782,4.004,4.236c0,0.418-0.055,0.869-0.165,1.243c-0.077,0.275-0.132,0.407-0.33,0.715h-1.463
		C457.277,12.9,457.365,12.769,457.497,12.504z"/>
	<path fill="#4D4D4F" d="M452.073,21.92c-0.737-0.517-1.144-1.408-1.144-2.53c0-1.034,0.264-1.728,0.88-2.277
		c0.528-0.484,1.067-0.649,2.112-0.649h4.929v1.32h-4.555c-1.012,0-1.408,0.11-1.76,0.484c-0.286,0.297-0.407,0.66-0.407,1.221
		c0,0.528,0.165,0.936,0.484,1.221c0.341,0.297,0.759,0.396,1.65,0.396h4.587v1.298h-4.841
		C453.195,22.404,452.557,22.25,452.073,21.92z"/>
	<path fill="#4D4D4F" d="M450.962,28.113c0-0.572,0.132-1.056,0.429-1.507c0.176-0.286,0.418-0.539,0.682-0.737
		c0.297-0.22,0.484-0.319,0.968-0.495l0.429,1.122c-0.946,0.352-1.419,0.902-1.419,1.683c0,0.726,0.473,1.232,1.144,1.232
		c0.495,0,0.891-0.297,1.166-0.869l0.429-0.891c0.594-1.232,1.188-1.728,2.124-1.728c1.199,0,2.068,0.958,2.068,2.277
		c0,0.462-0.11,0.946-0.286,1.288c-0.198,0.385-0.484,0.682-0.979,1.023l-0.693-0.968c0.363-0.231,0.484-0.33,0.616-0.506
		c0.165-0.209,0.264-0.495,0.264-0.814c0-0.594-0.341-0.979-0.858-0.979c-0.187,0-0.33,0.055-0.484,0.165
		c-0.198,0.143-0.319,0.319-0.528,0.748l-0.374,0.748c-0.385,0.771-0.407,0.825-0.682,1.123c-0.44,0.484-0.979,0.726-1.617,0.726
		C451.963,30.753,450.962,29.653,450.962,28.113z"/>
	<path fill="#4D4D4F" d="M457.651,36.495h-6.568v-1.309h6.568v-1.826h1.199v4.961h-1.199V36.495z"/>
	<path fill="#4D4D4F" d="M450.929,44.577c0-2.233,1.804-4.026,4.048-4.026c2.267,0,4.026,1.782,4.026,4.082
		c0,2.222-1.782,4.016-4.004,4.016C452.722,48.648,450.929,46.854,450.929,44.577z M457.761,44.644c0-1.541-1.199-2.729-2.772-2.729
		c-1.606,0-2.85,1.166-2.85,2.673s1.221,2.717,2.75,2.717C456.54,47.306,457.761,46.173,457.761,44.644z"/>
	<path fill="#4D4D4F" d="M451.083,58.822l4.412-0.891l-4.632-2.178v-0.11l4.621-2.036l-4.4-0.946v-1.31l7.976,1.728v0.11
		l-5.589,2.585l5.578,2.574v0.11l-7.965,1.716V58.822z"/>
	<path fill="#4D4D4F" d="M451.083,63.31h7.767v4.412h-1.199V64.63h-1.771v3.058h-1.199V64.63h-2.398v3.124h-1.199V63.31z"/>
	<path fill="#4D4D4F" d="M451.083,74.815l3.246-2.343h-3.246v-1.309h7.767v2.002c0,1.1-0.099,1.562-0.429,2.013
		c-0.396,0.55-1.012,0.825-1.793,0.825c-1.254,0-2.068-0.715-2.255-1.991l-3.29,2.508V74.815z M457.123,74.552
		c0.143-0.077,0.275-0.176,0.363-0.297c0.176-0.242,0.231-0.495,0.231-1.034v-0.737h-2.376v0.627c0,0.198,0,0.352,0.011,0.451
		c0.011,0.253,0.088,0.506,0.209,0.682c0.209,0.286,0.55,0.44,0.968,0.44C456.738,74.684,456.936,74.64,457.123,74.552z"/>
	<path fill="#4D4D4F" d="M457.497,89.412c0.198-0.418,0.297-0.847,0.297-1.309c0-1.628-1.188-2.816-2.805-2.816
		c-1.618,0-2.806,1.177-2.806,2.761c0,0.473,0.121,0.99,0.341,1.441c0.11,0.22,0.176,0.33,0.363,0.594h-1.397
		c-0.055-0.121-0.099-0.198-0.132-0.253c-0.253-0.517-0.374-1.111-0.374-1.793c0-2.376,1.683-4.115,3.994-4.115
		c2.321,0,4.004,1.782,4.004,4.236c0,0.418-0.055,0.869-0.165,1.243c-0.077,0.275-0.132,0.407-0.33,0.715h-1.463
		C457.277,89.808,457.365,89.676,457.497,89.412z"/>
	<path fill="#4D4D4F" d="M451.083,98.927l1.826-0.771V95.23l-1.826-0.858V92.92l7.976,3.85v0.099l-7.976,3.521V98.927z
		 M456.364,96.771l-2.266-1.023v1.937L456.364,96.771z"/>
	<path fill="#4D4D4F" d="M451.083,107.089l3.246-2.343h-3.246v-1.309h7.767v2.002c0,1.1-0.099,1.562-0.429,2.013
		c-0.396,0.55-1.012,0.825-1.793,0.825c-1.254,0-2.068-0.715-2.255-1.991l-3.29,2.508V107.089z M457.123,106.825
		c0.143-0.077,0.275-0.176,0.363-0.297c0.176-0.242,0.231-0.495,0.231-1.034v-0.737h-2.376v0.627c0,0.198,0,0.352,0.011,0.451
		c0.011,0.253,0.088,0.506,0.209,0.682c0.209,0.286,0.55,0.44,0.968,0.44C456.738,106.957,456.936,106.913,457.123,106.825z"/>
	<path fill="#4D4D4F" d="M451.083,111.763h7.767v4.412h-1.199v-3.091h-1.771v3.058h-1.199v-3.058h-2.398v3.125h-1.199V111.763z"/>
</g>
<g>
	<path fill="#4D4D4F" d="M418.597,9.754c0-0.572,0.132-1.056,0.429-1.507c0.176-0.286,0.418-0.539,0.682-0.737
		c0.297-0.22,0.484-0.319,0.968-0.495l0.429,1.122c-0.946,0.352-1.419,0.902-1.419,1.683c0,0.726,0.473,1.232,1.144,1.232
		c0.495,0,0.891-0.297,1.166-0.869l0.429-0.891c0.594-1.232,1.188-1.728,2.124-1.728c1.199,0,2.068,0.958,2.068,2.277
		c0,0.462-0.11,0.946-0.286,1.288c-0.198,0.385-0.484,0.682-0.979,1.023l-0.693-0.968c0.363-0.231,0.484-0.33,0.616-0.506
		c0.165-0.209,0.264-0.495,0.264-0.814c0-0.594-0.341-0.979-0.858-0.979c-0.187,0-0.33,0.055-0.484,0.165
		c-0.198,0.143-0.319,0.319-0.528,0.748l-0.374,0.748c-0.385,0.771-0.407,0.825-0.682,1.123c-0.44,0.484-0.979,0.726-1.617,0.726
		C419.598,12.395,418.597,11.294,418.597,9.754z"/>
	<path fill="#4D4D4F" d="M418.718,20.479h3.521v-3.608h-3.521v-1.309h7.767v1.32h-3.037v3.597h3.037v1.31h-7.767V20.479z"/>
	<path fill="#4D4D4F" d="M418.718,25.569h7.767v1.32h-7.767V25.569z"/>
	<path fill="#4D4D4F" d="M422.15,34.006c-0.077-0.154-0.132-0.33-0.176-0.517c-0.077-0.286-0.088-0.506-0.088-0.99v-0.715h-3.168
		v-1.32h7.767v1.925c0,0.814-0.088,1.331-0.297,1.738c-0.352,0.704-1.067,1.1-1.947,1.1
		C423.306,35.228,422.524,34.776,422.15,34.006z M425.341,32.466v-0.682h-2.354v0.693c0,0.957,0.396,1.441,1.199,1.441
		C424.956,33.918,425.341,33.445,425.341,32.466z"/>
	<path fill="#4D4D4F" d="M422.15,41.992c-0.077-0.154-0.132-0.33-0.176-0.517c-0.077-0.286-0.088-0.506-0.088-0.99V39.77h-3.168
		v-1.32h7.767v1.925c0,0.814-0.088,1.331-0.297,1.738c-0.352,0.704-1.067,1.1-1.947,1.1
		C423.306,43.213,422.524,42.762,422.15,41.992z M425.341,40.452V39.77h-2.354v0.693c0,0.957,0.396,1.441,1.199,1.441
		C424.956,41.904,425.341,41.431,425.341,40.452z"/>
	<path fill="#4D4D4F" d="M418.718,46.436h7.767v1.32h-7.767V46.436z"/>
	<path fill="#4D4D4F" d="M418.509,58.185l5.369-5.567h-5.16v-1.287h7.976v0.11l-5.248,5.611h5.039v1.265h-7.976V58.185z"/>
	<path fill="#4D4D4F" d="M420.797,69.02c-1.353-0.517-2.211-1.871-2.211-3.466c0-2.299,1.672-3.982,3.96-3.982
		c2.31,0,4.07,1.76,4.07,4.093c0,0.781-0.198,1.474-0.583,2.112c-0.264,0.429-0.418,0.627-0.913,1.1l-0.935-0.88
		c0.484-0.385,0.649-0.561,0.847-0.902c0.231-0.407,0.385-0.979,0.385-1.497c0-1.518-1.254-2.673-2.883-2.673
		c-1.584,0-2.761,1.111-2.761,2.629c0,0.627,0.187,1.155,0.572,1.628c0.385,0.462,0.748,0.671,1.375,0.759v-1.837h1.243v3.234H422.7
		C421.919,69.338,421.413,69.261,420.797,69.02z"/>
	<path fill="#4D4D4F" d="M418.718,82.659l0.913-0.759c-0.363-0.396-0.506-0.583-0.671-0.902c-0.231-0.429-0.341-0.836-0.341-1.287
		c0-1.342,1.012-2.432,2.267-2.432c0.473,0,0.935,0.176,1.254,0.451c0.231,0.209,0.462,0.473,0.715,0.825
		c0.099,0.143,0.22,0.308,0.352,0.506c0.33-0.286,0.473-0.396,0.704-0.528c0.308-0.165,0.583-0.242,0.902-0.242
		c0.946,0,1.672,0.803,1.672,1.87c0,1.067-0.715,1.893-1.639,1.893c-0.363,0-0.737-0.143-1.023-0.407
		c-0.286-0.253-0.407-0.407-0.77-0.924l-1.672,1.342l0.891,0.88l-0.836,0.77l-0.935-0.924l-1.782,1.419V82.659z M422.326,79.688
		c-0.297-0.451-0.418-0.605-0.671-0.825c-0.231-0.198-0.429-0.286-0.682-0.286c-0.649,0-1.243,0.572-1.243,1.221
		c0,0.154,0.033,0.308,0.099,0.451c0.077,0.176,0.176,0.319,0.462,0.649c0.044,0.055,0.11,0.132,0.209,0.242L422.326,79.688z
		 M425.44,80.172c0-0.363-0.242-0.627-0.572-0.627c-0.275,0-0.495,0.121-0.99,0.528c0.044,0.055,0.055,0.066,0.11,0.143
		c0.363,0.462,0.594,0.627,0.892,0.627C425.208,80.843,425.44,80.568,425.44,80.172z"/>
	<path fill="#4D4D4F" d="M418.718,95.958l3.246-2.343h-3.246v-1.309h7.767v2.002c0,1.1-0.099,1.562-0.429,2.013
		c-0.396,0.55-1.012,0.825-1.793,0.825c-1.254,0-2.068-0.715-2.255-1.991l-3.29,2.508V95.958z M424.758,95.694
		c0.143-0.077,0.275-0.176,0.363-0.297c0.176-0.242,0.231-0.495,0.231-1.034v-0.737h-2.376v0.627c0,0.198,0,0.352,0.011,0.451
		c0.011,0.253,0.088,0.506,0.209,0.682c0.209,0.286,0.55,0.44,0.968,0.44C424.373,95.826,424.571,95.782,424.758,95.694z"/>
	<path fill="#4D4D4F" d="M418.718,100.632h7.767v4.412h-1.199v-3.091h-1.771v3.058h-1.199v-3.058h-2.398v3.124h-1.199V100.632z"/>
	<path fill="#4D4D4F" d="M425.286,111.06h-6.568v-1.309h6.568v-1.826h1.199v4.961h-1.199V111.06z"/>
	<path fill="#4D4D4F" d="M419.708,121.312c-0.737-0.517-1.144-1.408-1.144-2.53c0-1.034,0.264-1.727,0.88-2.277
		c0.528-0.483,1.067-0.648,2.112-0.648h4.929v1.32h-4.555c-1.012,0-1.408,0.109-1.76,0.483c-0.286,0.297-0.407,0.66-0.407,1.222
		c0,0.527,0.165,0.935,0.484,1.221c0.341,0.297,0.759,0.396,1.65,0.396h4.587v1.298h-4.841
		C420.83,121.797,420.192,121.643,419.708,121.312z"/>
	<path fill="#4D4D4F" d="M418.718,128.979l3.246-2.344h-3.246v-1.31h7.767v2.003c0,1.1-0.099,1.562-0.429,2.013
		c-0.396,0.551-1.012,0.825-1.793,0.825c-1.254,0-2.068-0.715-2.255-1.991l-3.29,2.509V128.979z M424.758,128.715
		c0.143-0.077,0.275-0.176,0.363-0.297c0.176-0.242,0.231-0.495,0.231-1.034v-0.737h-2.376v0.627c0,0.198,0,0.353,0.011,0.451
		c0.011,0.253,0.088,0.507,0.209,0.683c0.209,0.286,0.55,0.439,0.968,0.439C424.373,128.847,424.571,128.803,424.758,128.715z"/>
	<path fill="#4D4D4F" d="M418.509,140.387l5.369-5.566h-5.16v-1.288h7.976v0.11l-5.248,5.611h5.039v1.265h-7.976V140.387z"/>
	<path fill="#4D4D4F" d="M418.597,146.26c0-0.572,0.132-1.056,0.429-1.507c0.176-0.286,0.418-0.539,0.682-0.737
		c0.297-0.22,0.484-0.319,0.968-0.495l0.429,1.122c-0.946,0.353-1.419,0.902-1.419,1.684c0,0.726,0.473,1.231,1.144,1.231
		c0.495,0,0.891-0.297,1.166-0.869l0.429-0.891c0.594-1.232,1.188-1.728,2.124-1.728c1.199,0,2.068,0.957,2.068,2.277
		c0,0.462-0.11,0.946-0.286,1.287c-0.198,0.386-0.484,0.683-0.979,1.023l-0.693-0.968c0.363-0.231,0.484-0.33,0.616-0.507
		c0.165-0.209,0.264-0.495,0.264-0.813c0-0.595-0.341-0.979-0.858-0.979c-0.187,0-0.33,0.055-0.484,0.165
		c-0.198,0.144-0.319,0.319-0.528,0.748l-0.374,0.748c-0.385,0.771-0.407,0.825-0.682,1.122c-0.44,0.484-0.979,0.727-1.617,0.727
		C419.598,148.9,418.597,147.8,418.597,146.26z"/>
</g>
</svg>
