<?xml version="1.0" encoding="utf-8"?>
<!-- Generator: Adobe Illustrator 16.2.1, SVG Export Plug-In . SVG Version: 6.00 Build 0)  -->
<!DOCTYPE svg PUBLIC "-//W3C//DTD SVG 1.1//EN" "http://www.w3.org/Graphics/SVG/1.1/DTD/svg11.dtd">
<svg version="1.1" id="Layer_1" xmlns="http://www.w3.org/2000/svg" xmlns:xlink="http://www.w3.org/1999/xlink" x="0px" y="0px"
	 width="613px" height="162px" viewBox="0 0 613 162" enable-background="new 0 0 613 162" xml:space="preserve">
<polygon fill="#DCDDDD" points="52.094,13.132 46.094,13.132 46.094,7.132 42.094,7.132 42.094,13.132 36.094,13.132 36.094,17.132 
	42.094,17.132 42.094,23.132 46.094,23.132 46.094,17.132 52.094,17.132 "/>
<rect x="60.079" y="13.132" fill="#DCDDDD" width="16" height="4"/>
<polygon fill="#4E4D50" points="52.094,33.941 46.094,33.941 46.094,27.941 42.094,27.941 42.094,33.941 36.094,33.941 
	36.094,37.941 42.094,37.941 42.094,43.941 46.094,43.941 46.094,37.941 52.094,37.941 "/>
<rect x="60.079" y="33.941" fill="#4E4D50" width="16" height="4"/>
<rect x="246.917" y="7.116" fill="#4D4D4F" width="4" height="141.886"/>
<rect x="282" y="7.116" fill="#4D4D4F" width="4" height="109.193"/>
<rect x="311.632" y="7.116" fill="#4D4D4F" width="4" height="63.296"/>
<rect x="342.544" y="7.116" fill="#4D4D4F" width="4" height="30.372"/>
<rect x="378.277" y="7.116" fill="#4D4D4F" width="4" height="34.144"/>
<rect x="417.148" y="7.116" fill="#DCDDDD" width="4" height="32.12"/>
<path fill="#DCDDDD" d="M26.582,23.589l-6.17-5.808c1.65-2.758,1.229-6.395-1.206-8.689c-1.304-1.227-3.007-1.903-4.797-1.903
	c-1.922,0-3.78,0.802-5.098,2.201C6.666,12.201,6.8,16.64,9.61,19.286c1.304,1.227,3.007,1.903,4.797,1.903
	c1.415,0,2.792-0.438,3.947-1.225l6.171,5.81L26.582,23.589z M14.407,18.189c-1.022,0-1.996-0.386-2.74-1.087
	c-1.606-1.512-1.683-4.048-0.171-5.654c0.764-0.811,1.798-1.258,2.913-1.258c1.022,0,1.996,0.386,2.74,1.087
	c1.606,1.513,1.683,4.049,0.171,5.655C16.557,17.742,15.522,18.189,14.407,18.189z"/>
<path fill="#4E4D50" d="M26.582,43.604l-6.17-5.808c1.65-2.758,1.229-6.395-1.206-8.689c-1.304-1.227-3.007-1.903-4.797-1.903
	c-1.922,0-3.78,0.802-5.098,2.201c-2.646,2.811-2.511,7.25,0.299,9.896c1.304,1.227,3.007,1.903,4.797,1.903
	c1.415,0,2.792-0.438,3.947-1.225l6.171,5.81L26.582,43.604z M14.407,38.204c-1.022,0-1.996-0.386-2.74-1.087
	c-1.606-1.512-1.683-4.048-0.171-5.654c0.764-0.811,1.798-1.258,2.913-1.258c1.022,0,1.996,0.386,2.74,1.087
	c1.606,1.513,1.683,4.049,0.171,5.655C16.557,37.757,15.522,38.204,14.407,38.204z"/>
<polygon fill="#FFFFFF" points="52.094,57.722 46.094,57.722 46.094,51.722 42.094,51.722 42.094,57.722 36.094,57.722 
	36.094,61.722 42.094,61.722 42.094,67.722 46.094,67.722 46.094,61.722 52.094,61.722 "/>
<rect x="60.079" y="57.722" fill="#FFFFFF" width="16" height="4"/>
<path fill="#FFFFFF" d="M26.582,67.384l-6.17-5.808c1.65-2.758,1.229-6.395-1.206-8.689c-1.304-1.227-3.007-1.903-4.797-1.903
	c-1.922,0-3.78,0.802-5.098,2.201c-2.646,2.811-2.511,7.25,0.299,9.896c1.304,1.227,3.007,1.903,4.797,1.903
	c1.415,0,2.792-0.438,3.947-1.225l6.171,5.81L26.582,67.384z M14.407,61.984c-1.022,0-1.996-0.386-2.74-1.087
	c-1.606-1.512-1.683-4.048-0.171-5.654c0.764-0.811,1.798-1.258,2.913-1.258c1.022,0,1.996,0.386,2.74,1.087
	c1.606,1.513,1.683,4.049,0.171,5.655C16.557,61.537,15.522,61.984,14.407,61.984z"/>
<g>
	<polygon fill="#4E4D50" points="96.024,6.189 121.024,31.189 96.024,56.189 	"/>
	<g>
		<polygon fill="#FFFFFF" points="107.857,39.992 108.357,39.492 100.408,31.543 108.357,23.593 107.857,23.093 99.408,31.543 		"/>
		<rect x="99.908" y="31.189" fill="#FFFFFF" width="16.818" height="0.707"/>
	</g>
</g>
<g>
	<polygon fill="#4E4D50" points="159.5,56.189 134.5,31.189 159.5,6.189 	"/>
	<g>
		<polygon fill="#FFFFFF" points="147.667,22.387 147.167,22.887 155.117,30.836 147.167,38.786 147.667,39.286 156.117,30.836 		
			"/>
		<rect x="138.798" y="30.482" fill="#FFFFFF" width="16.818" height="0.707"/>
	</g>
</g>
<g>
	<polygon fill="#4E4D50" points="107.857,85.888 108.357,85.388 100.408,77.439 108.357,69.49 107.857,68.99 99.408,77.439 	"/>
	<path fill="#231F20" d="M107.857,86.065l-8.626-8.625l8.626-8.626l0.677,0.677l-7.95,7.95l7.949,7.949L107.857,86.065z
		 M99.584,77.439l8.272,8.272l0.323-0.323l-7.949-7.949l7.95-7.95l-0.323-0.323L99.584,77.439z"/>
</g>
<g>
	<polygon fill="#4E4D50" points="147.667,68.284 147.167,68.784 155.117,76.732 147.167,84.682 147.667,85.182 156.117,76.732 	"/>
	<path fill="#231F20" d="M147.667,85.359l-0.677-0.677l7.95-7.95l-7.949-7.949l0.677-0.677l8.626,8.625L147.667,85.359z
		 M147.344,84.682l0.323,0.323l8.273-8.273l-8.272-8.272l-0.323,0.323l7.949,7.949L147.344,84.682z"/>
</g>
<g>
	<path fill="#4D4D4F" d="M208.667,10.063v21h21v-21H208.667z M228.667,30.063h-19v-19h19V30.063z"/>
	<polygon fill="#4D4D4F" points="218.667,25.563 219.667,25.563 219.667,21.063 224.167,21.063 224.167,20.063 219.667,20.063 
		219.667,15.563 218.667,15.563 218.667,20.063 214.167,20.063 214.167,21.063 218.667,21.063 	"/>
	<path fill="#4D4D4F" d="M208.667,55.73h21v-21h-21V55.73z M209.667,35.73h19v19h-19V35.73z"/>
	<rect x="214.167" y="44.73" fill="#4D4D4F" width="10" height="1"/>
</g>
<g>
	<path fill="#4D4D4F" d="M176.793,34.789v21h21v-21H176.793z M196.793,54.789h-19v-19h19V54.789z"/>
	<polygon fill="#4D4D4F" points="190.475,49.178 191.182,48.471 188,45.289 191.182,42.106 190.475,41.399 187.293,44.582 
		184.111,41.399 183.404,42.106 186.586,45.289 183.404,48.471 184.111,49.178 187.293,45.996 	"/>
</g>
<polygon fill="#4D4D4F" points="192.302,27.282 188,22.98 192.301,18.679 191.594,17.972 187.293,22.273 182.991,17.972 
	182.284,18.679 186.586,22.98 182.284,27.281 182.991,27.988 187.293,23.687 191.595,27.989 "/>
<g>
	<path fill="#4D4D4F" d="M386.31,9.855c0-0.572,0.132-1.056,0.429-1.507c0.176-0.286,0.418-0.539,0.682-0.737
		c0.297-0.22,0.484-0.319,0.968-0.495l0.429,1.122c-0.946,0.352-1.419,0.902-1.419,1.683c0,0.726,0.473,1.232,1.144,1.232
		c0.495,0,0.891-0.297,1.166-0.869l0.429-0.891c0.594-1.232,1.188-1.728,2.124-1.728c1.199,0,2.068,0.958,2.068,2.277
		c0,0.462-0.11,0.946-0.286,1.288c-0.198,0.385-0.484,0.682-0.979,1.023l-0.693-0.968c0.363-0.231,0.484-0.33,0.616-0.506
		c0.165-0.209,0.264-0.495,0.264-0.814c0-0.594-0.341-0.979-0.858-0.979c-0.187,0-0.33,0.055-0.484,0.165
		c-0.198,0.143-0.319,0.319-0.528,0.748l-0.374,0.748c-0.385,0.771-0.407,0.825-0.682,1.123c-0.44,0.484-0.979,0.726-1.617,0.726
		C387.311,12.496,386.31,11.396,386.31,9.855z"/>
	<path fill="#4D4D4F" d="M386.431,20.581h3.521v-3.608h-3.521v-1.309h7.767v1.32h-3.037v3.597h3.037v1.31h-7.767V20.581z"/>
	<path fill="#4D4D4F" d="M386.277,29.172c0-2.233,1.804-4.027,4.048-4.027c2.267,0,4.026,1.782,4.026,4.082
		c0,2.222-1.782,4.016-4.004,4.016C388.07,33.242,386.277,31.449,386.277,29.172z M393.109,29.238c0-1.541-1.199-2.729-2.772-2.729
		c-1.606,0-2.85,1.166-2.85,2.673s1.221,2.717,2.75,2.717C391.888,31.9,393.109,30.767,393.109,29.238z"/>
	<path fill="#4D4D4F" d="M389.864,40.039c-0.077-0.154-0.132-0.33-0.176-0.517c-0.077-0.286-0.088-0.506-0.088-0.99v-0.715h-3.168
		v-1.32h7.767v1.925c0,0.814-0.088,1.331-0.297,1.738c-0.352,0.704-1.067,1.1-1.947,1.1
		C391.019,41.26,390.238,40.809,389.864,40.039z M393.054,38.499v-0.682H390.7v0.693c0,0.957,0.396,1.441,1.199,1.441
		C392.669,39.951,393.054,39.478,393.054,38.499z"/>
</g>
<g>
	<path fill="#DCDDDD" d="M431.661,12.606c0.198-0.418,0.297-0.847,0.297-1.309c0-1.628-1.188-2.816-2.805-2.816
		c-1.618,0-2.806,1.177-2.806,2.761c0,0.473,0.121,0.99,0.341,1.441c0.11,0.22,0.176,0.33,0.363,0.594h-1.397
		c-0.055-0.121-0.099-0.198-0.132-0.253c-0.253-0.517-0.374-1.111-0.374-1.793c0-2.376,1.683-4.115,3.994-4.115
		c2.321,0,4.004,1.782,4.004,4.236c0,0.418-0.055,0.869-0.165,1.243c-0.077,0.275-0.132,0.407-0.33,0.715h-1.463
		C431.441,13.002,431.529,12.87,431.661,12.606z"/>
	<path fill="#DCDDDD" d="M425.247,22.121l1.826-0.771v-2.926l-1.826-0.858v-1.452l7.976,3.851v0.099l-7.976,3.521V22.121z
		 M430.528,19.965l-2.266-1.023v1.937L430.528,19.965z"/>
	<path fill="#DCDDDD" d="M425.247,30.282l3.246-2.343h-3.246V26.63h7.767v2.002c0,1.1-0.099,1.562-0.429,2.013
		c-0.396,0.55-1.012,0.825-1.793,0.825c-1.254,0-2.068-0.715-2.255-1.991l-3.29,2.508V30.282z M431.287,30.019
		c0.143-0.077,0.275-0.176,0.363-0.297c0.176-0.242,0.231-0.495,0.231-1.034V27.95h-2.376v0.627c0,0.198,0,0.352,0.011,0.451
		c0.011,0.253,0.088,0.506,0.209,0.682c0.209,0.286,0.55,0.44,0.968,0.44C430.902,30.15,431.1,30.106,431.287,30.019z"/>
	<path fill="#DCDDDD" d="M431.815,37.41h-6.568v-1.309h6.568v-1.826h1.199v4.961h-1.199V37.41z"/>
</g>
<rect x="417.148" y="51.351" fill="#4E4D50" width="4" height="32.12"/>
<g>
	<path fill="#4E4D50" d="M431.661,56.841c0.198-0.418,0.297-0.847,0.297-1.309c0-1.628-1.188-2.816-2.805-2.816
		c-1.618,0-2.806,1.177-2.806,2.761c0,0.473,0.121,0.99,0.341,1.441c0.11,0.22,0.176,0.33,0.363,0.594h-1.397
		c-0.055-0.121-0.099-0.198-0.132-0.253c-0.253-0.517-0.374-1.111-0.374-1.793c0-2.376,1.683-4.115,3.994-4.115
		c2.321,0,4.004,1.782,4.004,4.236c0,0.418-0.055,0.869-0.165,1.243c-0.077,0.275-0.132,0.407-0.33,0.715h-1.463
		C431.441,57.237,431.529,57.105,431.661,56.841z"/>
	<path fill="#4E4D50" d="M425.247,66.356l1.826-0.771v-2.926l-1.826-0.858v-1.452l7.976,3.851v0.099l-7.976,3.521V66.356z
		 M430.528,64.2l-2.266-1.023v1.937L430.528,64.2z"/>
	<path fill="#4E4D50" d="M425.247,74.517l3.246-2.343h-3.246v-1.309h7.767v2.002c0,1.1-0.099,1.562-0.429,2.013
		c-0.396,0.55-1.012,0.825-1.793,0.825c-1.254,0-2.068-0.715-2.255-1.991l-3.29,2.508V74.517z M431.287,74.253
		c0.143-0.077,0.275-0.176,0.363-0.297c0.176-0.242,0.231-0.495,0.231-1.034v-0.737h-2.376v0.627c0,0.198,0,0.352,0.011,0.451
		c0.011,0.253,0.088,0.506,0.209,0.682c0.209,0.286,0.55,0.44,0.968,0.44C430.902,74.385,431.1,74.341,431.287,74.253z"/>
	<path fill="#4E4D50" d="M431.815,81.645h-6.568v-1.309h6.568V78.51h1.199v4.961h-1.199V81.645z"/>
</g>
<rect x="417.148" y="91.966" fill="#FFFFFF" width="4" height="32.12"/>
<g>
	<path fill="#FFFFFF" d="M431.661,97.456c0.198-0.418,0.297-0.847,0.297-1.309c0-1.628-1.188-2.816-2.805-2.816
		c-1.618,0-2.806,1.177-2.806,2.761c0,0.473,0.121,0.99,0.341,1.441c0.11,0.22,0.176,0.33,0.363,0.594h-1.397
		c-0.055-0.121-0.099-0.198-0.132-0.253c-0.253-0.517-0.374-1.111-0.374-1.793c0-2.376,1.683-4.115,3.994-4.115
		c2.321,0,4.004,1.782,4.004,4.236c0,0.418-0.055,0.869-0.165,1.243c-0.077,0.275-0.132,0.407-0.33,0.715h-1.463
		C431.441,97.852,431.529,97.72,431.661,97.456z"/>
	<path fill="#FFFFFF" d="M425.247,106.971l1.826-0.771v-2.926l-1.826-0.858v-1.452l7.976,3.851v0.099l-7.976,3.521V106.971z
		 M430.528,104.815l-2.266-1.023v1.937L430.528,104.815z"/>
	<path fill="#FFFFFF" d="M425.247,115.132l3.246-2.343h-3.246v-1.309h7.767v2.002c0,1.1-0.099,1.562-0.429,2.013
		c-0.396,0.55-1.012,0.825-1.793,0.825c-1.254,0-2.068-0.715-2.255-1.991l-3.29,2.508V115.132z M431.287,114.869
		c0.143-0.077,0.275-0.176,0.363-0.297c0.176-0.242,0.231-0.495,0.231-1.034V112.8h-2.376v0.627c0,0.198,0,0.352,0.011,0.451
		c0.011,0.253,0.088,0.506,0.209,0.682c0.209,0.286,0.55,0.44,0.968,0.44C430.902,115,431.1,114.957,431.287,114.869z"/>
	<path fill="#FFFFFF" d="M431.815,122.26h-6.568v-1.309h6.568v-1.826h1.199v4.961h-1.199V122.26z"/>
</g>
<g>
	<path fill="#4D4D4F" d="M350.753,7.116h7.767v1.32h-7.767V7.116z"/>
	<path fill="#4D4D4F" d="M350.544,18.865l5.369-5.567h-5.16v-1.287h7.976v0.11l-5.248,5.611h5.039v1.265h-7.976V18.865z"/>
	<path fill="#4D4D4F" d="M357.321,23.891h-1.793v2.508h-1.177v-2.497h-3.598V22.56h7.767v3.883h-1.199V23.891z"/>
	<path fill="#4D4D4F" d="M350.599,33.417c0-2.233,1.804-4.027,4.048-4.027c2.267,0,4.026,1.782,4.026,4.082
		c0,2.222-1.782,4.016-4.004,4.016C352.392,37.488,350.599,35.694,350.599,33.417z M357.431,33.483c0-1.541-1.199-2.729-2.772-2.729
		c-1.606,0-2.85,1.166-2.85,2.673s1.221,2.717,2.75,2.717C356.21,36.146,357.431,35.013,357.431,33.483z"/>
</g>
<g>
	<path fill="#4D4D4F" d="M296.497,12.606c0.198-0.418,0.297-0.847,0.297-1.309c0-1.628-1.188-2.816-2.805-2.816
		c-1.618,0-2.806,1.177-2.806,2.761c0,0.473,0.121,0.99,0.341,1.441c0.11,0.22,0.176,0.33,0.363,0.594h-1.397
		c-0.055-0.121-0.099-0.198-0.132-0.253c-0.253-0.517-0.374-1.111-0.374-1.793c0-2.376,1.683-4.115,3.994-4.115
		c2.321,0,4.004,1.782,4.004,4.236c0,0.418-0.055,0.869-0.165,1.243c-0.077,0.275-0.132,0.407-0.33,0.715h-1.463
		C296.277,13.002,296.365,12.87,296.497,12.606z"/>
	<path fill="#4D4D4F" d="M291.073,22.022c-0.737-0.517-1.144-1.408-1.144-2.53c0-1.034,0.264-1.728,0.88-2.277
		c0.528-0.484,1.067-0.649,2.112-0.649h4.929v1.32h-4.555c-1.012,0-1.408,0.11-1.76,0.484c-0.286,0.297-0.407,0.66-0.407,1.221
		c0,0.528,0.165,0.936,0.484,1.221c0.341,0.297,0.759,0.396,1.65,0.396h4.587v1.298h-4.841
		C292.195,22.506,291.557,22.352,291.073,22.022z"/>
	<path fill="#4D4D4F" d="M289.962,28.214c0-0.572,0.132-1.056,0.429-1.507c0.176-0.286,0.418-0.539,0.682-0.737
		c0.297-0.22,0.484-0.319,0.968-0.495l0.429,1.122c-0.946,0.352-1.419,0.902-1.419,1.683c0,0.726,0.473,1.232,1.144,1.232
		c0.495,0,0.891-0.297,1.166-0.869l0.429-0.891c0.594-1.232,1.188-1.728,2.124-1.728c1.199,0,2.068,0.958,2.068,2.277
		c0,0.462-0.11,0.946-0.286,1.288c-0.198,0.385-0.484,0.682-0.979,1.023l-0.693-0.968c0.363-0.231,0.484-0.33,0.616-0.506
		c0.165-0.209,0.264-0.495,0.264-0.814c0-0.594-0.341-0.979-0.858-0.979c-0.187,0-0.33,0.055-0.484,0.165
		c-0.198,0.143-0.319,0.319-0.528,0.748l-0.374,0.748c-0.385,0.771-0.407,0.825-0.682,1.123c-0.44,0.484-0.979,0.726-1.617,0.726
		C290.963,30.855,289.962,29.755,289.962,28.214z"/>
	<path fill="#4D4D4F" d="M296.651,36.596h-6.568v-1.309h6.568v-1.826h1.199v4.961h-1.199V36.596z"/>
	<path fill="#4D4D4F" d="M289.929,44.679c0-2.233,1.804-4.026,4.048-4.026c2.267,0,4.026,1.782,4.026,4.082
		c0,2.222-1.782,4.016-4.004,4.016C291.722,48.75,289.929,46.956,289.929,44.679z M296.761,44.745c0-1.541-1.199-2.729-2.772-2.729
		c-1.606,0-2.85,1.166-2.85,2.673s1.221,2.717,2.75,2.717C295.54,47.407,296.761,46.274,296.761,44.745z"/>
	<path fill="#4D4D4F" d="M290.083,58.924l4.412-0.891l-4.632-2.178v-0.11l4.621-2.036l-4.4-0.946v-1.31l7.976,1.728v0.11
		l-5.589,2.585l5.578,2.574v0.11l-7.965,1.716V58.924z"/>
	<path fill="#4D4D4F" d="M290.083,63.411h7.767v4.412h-1.199v-3.091h-1.771v3.058h-1.199v-3.058h-2.398v3.124h-1.199V63.411z"/>
	<path fill="#4D4D4F" d="M290.083,74.917l3.246-2.343h-3.246v-1.309h7.767v2.002c0,1.1-0.099,1.562-0.429,2.013
		c-0.396,0.55-1.012,0.825-1.793,0.825c-1.254,0-2.068-0.715-2.255-1.991l-3.29,2.508V74.917z M296.123,74.653
		c0.143-0.077,0.275-0.176,0.363-0.297c0.176-0.242,0.231-0.495,0.231-1.034v-0.737h-2.376v0.627c0,0.198,0,0.352,0.011,0.451
		c0.011,0.253,0.088,0.506,0.209,0.682c0.209,0.286,0.55,0.44,0.968,0.44C295.738,74.785,295.936,74.741,296.123,74.653z"/>
	<path fill="#4D4D4F" d="M296.497,89.514c0.198-0.418,0.297-0.847,0.297-1.309c0-1.628-1.188-2.816-2.805-2.816
		c-1.618,0-2.806,1.177-2.806,2.761c0,0.473,0.121,0.99,0.341,1.441c0.11,0.22,0.176,0.33,0.363,0.594h-1.397
		c-0.055-0.121-0.099-0.198-0.132-0.253c-0.253-0.517-0.374-1.111-0.374-1.793c0-2.376,1.683-4.115,3.994-4.115
		c2.321,0,4.004,1.782,4.004,4.236c0,0.418-0.055,0.869-0.165,1.243c-0.077,0.275-0.132,0.407-0.33,0.715h-1.463
		C296.277,89.91,296.365,89.778,296.497,89.514z"/>
	<path fill="#4D4D4F" d="M290.083,99.029l1.826-0.771v-2.926l-1.826-0.858v-1.452l7.976,3.85v0.099l-7.976,3.521V99.029z
		 M295.364,96.872l-2.266-1.023v1.937L295.364,96.872z"/>
	<path fill="#4D4D4F" d="M290.083,107.19l3.246-2.343h-3.246v-1.309h7.767v2.002c0,1.1-0.099,1.562-0.429,2.013
		c-0.396,0.55-1.012,0.825-1.793,0.825c-1.254,0-2.068-0.715-2.255-1.991l-3.29,2.508V107.19z M296.123,106.927
		c0.143-0.077,0.275-0.176,0.363-0.297c0.176-0.242,0.231-0.495,0.231-1.034v-0.737h-2.376v0.627c0,0.198,0,0.352,0.011,0.451
		c0.011,0.253,0.088,0.506,0.209,0.682c0.209,0.286,0.55,0.44,0.968,0.44C295.738,107.059,295.936,107.015,296.123,106.927z"/>
	<path fill="#4D4D4F" d="M290.083,111.865h7.767v4.412h-1.199v-3.091h-1.771v3.058h-1.199v-3.058h-2.398v3.125h-1.199V111.865z"/>
</g>
<g>
	<path fill="#4D4D4F" d="M257.597,9.855c0-0.572,0.132-1.056,0.429-1.507c0.176-0.286,0.418-0.539,0.682-0.737
		c0.297-0.22,0.484-0.319,0.968-0.495l0.429,1.122c-0.946,0.352-1.419,0.902-1.419,1.683c0,0.726,0.473,1.232,1.144,1.232
		c0.495,0,0.891-0.297,1.166-0.869l0.429-0.891c0.594-1.232,1.188-1.728,2.124-1.728c1.199,0,2.068,0.958,2.068,2.277
		c0,0.462-0.11,0.946-0.286,1.288c-0.198,0.385-0.484,0.682-0.979,1.023l-0.693-0.968c0.363-0.231,0.484-0.33,0.616-0.506
		c0.165-0.209,0.264-0.495,0.264-0.814c0-0.594-0.341-0.979-0.858-0.979c-0.187,0-0.33,0.055-0.484,0.165
		c-0.198,0.143-0.319,0.319-0.528,0.748l-0.374,0.748c-0.385,0.771-0.407,0.825-0.682,1.123c-0.44,0.484-0.979,0.726-1.617,0.726
		C258.598,12.496,257.597,11.396,257.597,9.855z"/>
	<path fill="#4D4D4F" d="M257.718,20.581h3.521v-3.608h-3.521v-1.309h7.767v1.32h-3.037v3.597h3.037v1.31h-7.767V20.581z"/>
	<path fill="#4D4D4F" d="M257.718,25.67h7.767v1.32h-7.767V25.67z"/>
	<path fill="#4D4D4F" d="M261.15,34.108c-0.077-0.154-0.132-0.33-0.176-0.517c-0.077-0.286-0.088-0.506-0.088-0.99v-0.715h-3.168
		v-1.32h7.767v1.925c0,0.814-0.088,1.331-0.297,1.738c-0.352,0.704-1.067,1.1-1.947,1.1
		C262.306,35.329,261.524,34.878,261.15,34.108z M264.341,32.568v-0.682h-2.354v0.693c0,0.957,0.396,1.441,1.199,1.441
		C263.956,34.02,264.341,33.547,264.341,32.568z"/>
	<path fill="#4D4D4F" d="M261.15,42.094c-0.077-0.154-0.132-0.33-0.176-0.517c-0.077-0.286-0.088-0.506-0.088-0.99v-0.715h-3.168
		v-1.32h7.767v1.925c0,0.814-0.088,1.331-0.297,1.738c-0.352,0.704-1.067,1.1-1.947,1.1
		C262.306,43.315,261.524,42.864,261.15,42.094z M264.341,40.554v-0.682h-2.354v0.693c0,0.957,0.396,1.441,1.199,1.441
		C263.956,42.006,264.341,41.533,264.341,40.554z"/>
	<path fill="#4D4D4F" d="M257.718,46.537h7.767v1.32h-7.767V46.537z"/>
	<path fill="#4D4D4F" d="M257.509,58.286l5.369-5.567h-5.16v-1.287h7.976v0.11l-5.248,5.611h5.039v1.265h-7.976V58.286z"/>
	<path fill="#4D4D4F" d="M259.797,69.121c-1.353-0.517-2.211-1.871-2.211-3.466c0-2.299,1.672-3.982,3.96-3.982
		c2.31,0,4.07,1.76,4.07,4.093c0,0.781-0.198,1.474-0.583,2.112c-0.264,0.429-0.418,0.627-0.913,1.1l-0.935-0.88
		c0.484-0.385,0.649-0.561,0.847-0.902c0.231-0.407,0.385-0.979,0.385-1.497c0-1.518-1.254-2.673-2.883-2.673
		c-1.584,0-2.761,1.111-2.761,2.629c0,0.627,0.187,1.155,0.572,1.628c0.385,0.462,0.748,0.671,1.375,0.759v-1.837h1.243v3.234H261.7
		C260.919,69.44,260.413,69.363,259.797,69.121z"/>
	<path fill="#4D4D4F" d="M257.718,82.76l0.913-0.759c-0.363-0.396-0.506-0.583-0.671-0.902c-0.231-0.429-0.341-0.836-0.341-1.287
		c0-1.342,1.012-2.432,2.267-2.432c0.473,0,0.935,0.176,1.254,0.451c0.231,0.209,0.462,0.473,0.715,0.825
		c0.099,0.143,0.22,0.308,0.352,0.506c0.33-0.286,0.473-0.396,0.704-0.528c0.308-0.165,0.583-0.242,0.902-0.242
		c0.946,0,1.672,0.803,1.672,1.87c0,1.067-0.715,1.893-1.639,1.893c-0.363,0-0.737-0.143-1.023-0.407
		c-0.286-0.253-0.407-0.407-0.77-0.924l-1.672,1.342l0.891,0.88l-0.836,0.77l-0.935-0.924l-1.782,1.419V82.76z M261.326,79.79
		c-0.297-0.451-0.418-0.605-0.671-0.825c-0.231-0.198-0.429-0.286-0.682-0.286c-0.649,0-1.243,0.572-1.243,1.221
		c0,0.154,0.033,0.308,0.099,0.451c0.077,0.176,0.176,0.319,0.462,0.649c0.044,0.055,0.11,0.132,0.209,0.242L261.326,79.79z
		 M264.44,80.274c0-0.363-0.242-0.627-0.572-0.627c-0.275,0-0.495,0.121-0.99,0.528c0.044,0.055,0.055,0.066,0.11,0.143
		c0.363,0.462,0.594,0.627,0.892,0.627C264.208,80.945,264.44,80.67,264.44,80.274z"/>
	<path fill="#4D4D4F" d="M257.718,96.059l3.246-2.343h-3.246v-1.309h7.767v2.002c0,1.1-0.099,1.562-0.429,2.013
		c-0.396,0.55-1.012,0.825-1.793,0.825c-1.254,0-2.068-0.715-2.255-1.991l-3.29,2.508V96.059z M263.758,95.795
		c0.143-0.077,0.275-0.176,0.363-0.297c0.176-0.242,0.231-0.495,0.231-1.034v-0.737h-2.376v0.627c0,0.198,0,0.352,0.011,0.451
		c0.011,0.253,0.088,0.506,0.209,0.682c0.209,0.286,0.55,0.44,0.968,0.44C263.373,95.927,263.571,95.883,263.758,95.795z"/>
	<path fill="#4D4D4F" d="M257.718,100.733h7.767v4.412h-1.199v-3.091h-1.771v3.058h-1.199v-3.058h-2.398v3.124h-1.199V100.733z"/>
	<path fill="#4D4D4F" d="M264.286,111.162h-6.568v-1.309h6.568v-1.826h1.199v4.961h-1.199V111.162z"/>
	<path fill="#4D4D4F" d="M258.708,121.414c-0.737-0.517-1.144-1.408-1.144-2.53c0-1.034,0.264-1.727,0.88-2.277
		c0.528-0.483,1.067-0.648,2.112-0.648h4.929v1.32h-4.555c-1.012,0-1.408,0.109-1.76,0.483c-0.286,0.297-0.407,0.66-0.407,1.222
		c0,0.527,0.165,0.935,0.484,1.221c0.341,0.297,0.759,0.396,1.65,0.396h4.587v1.298h-4.841
		C259.83,121.898,259.192,121.744,258.708,121.414z"/>
	<path fill="#4D4D4F" d="M257.718,129.081l3.246-2.344h-3.246v-1.31h7.767v2.003c0,1.1-0.099,1.562-0.429,2.013
		c-0.396,0.551-1.012,0.825-1.793,0.825c-1.254,0-2.068-0.715-2.255-1.991l-3.29,2.509V129.081z M263.758,128.816
		c0.143-0.077,0.275-0.176,0.363-0.297c0.176-0.242,0.231-0.495,0.231-1.034v-0.737h-2.376v0.627c0,0.198,0,0.353,0.011,0.451
		c0.011,0.253,0.088,0.507,0.209,0.683c0.209,0.286,0.55,0.439,0.968,0.439C263.373,128.948,263.571,128.904,263.758,128.816z"/>
	<path fill="#4D4D4F" d="M257.509,140.488l5.369-5.566h-5.16v-1.288h7.976v0.11l-5.248,5.611h5.039v1.265h-7.976V140.488z"/>
	<path fill="#4D4D4F" d="M257.597,146.361c0-0.572,0.132-1.056,0.429-1.507c0.176-0.286,0.418-0.539,0.682-0.737
		c0.297-0.22,0.484-0.319,0.968-0.495l0.429,1.122c-0.946,0.353-1.419,0.902-1.419,1.684c0,0.726,0.473,1.231,1.144,1.231
		c0.495,0,0.891-0.297,1.166-0.869l0.429-0.891c0.594-1.232,1.188-1.728,2.124-1.728c1.199,0,2.068,0.957,2.068,2.277
		c0,0.462-0.11,0.946-0.286,1.287c-0.198,0.386-0.484,0.683-0.979,1.023l-0.693-0.968c0.363-0.231,0.484-0.33,0.616-0.507
		c0.165-0.209,0.264-0.495,0.264-0.813c0-0.595-0.341-0.979-0.858-0.979c-0.187,0-0.33,0.055-0.484,0.165
		c-0.198,0.144-0.319,0.319-0.528,0.748l-0.374,0.748c-0.385,0.771-0.407,0.825-0.682,1.122c-0.44,0.484-0.979,0.727-1.617,0.727
		C258.598,149.002,257.597,147.901,257.597,146.361z"/>
</g>
<path fill="#FFFFFF" d="M404.471,148.595c-0.372,1.946-0.824,3.812-2.167,4.787c-0.414-2.941,0.609-5.152,1.083-7.499
	c-0.811-1.364,0.099-4.107,1.808-3.432c2.103,0.833-1.821,5.072,0.813,5.602c2.751,0.552,3.874-4.772,2.167-6.506
	c-2.463-2.5-7.174-0.055-6.593,3.525c0.139,0.875,1.044,1.14,0.36,2.348c-1.577-0.35-2.047-1.593-1.986-3.252
	c0.097-2.714,2.438-4.615,4.786-4.878c2.97-0.332,5.757,1.09,6.144,3.885c0.434,3.153-1.34,6.568-4.518,6.324
	C405.506,149.43,405.146,149.004,404.471,148.595"/>
<path fill="#FFFFFF" d="M371.824,141.263c-0.6,0.266-1.243,0.445-1.917,0.527c0.689-0.415,1.218-1.069,1.467-1.849
	c-0.645,0.382-1.359,0.66-2.12,0.811c-0.61-0.648-1.478-1.055-2.438-1.055c-1.844,0-3.339,1.495-3.339,3.34
	c0,0.26,0.03,0.516,0.086,0.761c-2.774-0.139-5.235-1.469-6.882-3.489c-0.288,0.492-0.453,1.066-0.453,1.679
	c0,1.159,0.59,2.181,1.486,2.78c-0.548-0.018-1.063-0.167-1.514-0.418c0,0.015,0,0.028,0,0.042c0,1.619,1.152,2.97,2.68,3.275
	c-0.28,0.076-0.576,0.117-0.881,0.117c-0.214,0-0.423-0.021-0.628-0.059c0.425,1.326,1.659,2.292,3.12,2.318
	c-1.143,0.896-2.583,1.43-4.147,1.43c-0.27,0-0.536-0.016-0.797-0.046c1.478,0.947,3.233,1.5,5.12,1.5c6.143,0,9.5-5.088,9.5-9.502
	c0-0.145-0.003-0.29-0.009-0.432C370.81,142.52,371.377,141.933,371.824,141.263"/>
<path fill="#FFFFFF" d="M343.892,153.381h-2.924v-7.07h-1.464v-2.438h1.464v-1.463c0-1.987,0.824-3.168,3.168-3.168h1.953v2.437
	h-1.219c-0.913,0-0.974,0.34-0.974,0.976l-0.003,1.219h2.211l-0.259,2.438h-1.952V153.381z"/>
<path fill="#FFFFFF" d="M426.345,143.545c-1.558,0-2.822,1.226-2.822,2.736c0,1.511,1.264,2.734,2.822,2.734
	c1.56,0,2.822-1.223,2.822-2.734C429.167,144.771,427.905,143.545,426.345,143.545 M431.77,145.228h-1.236
	c0.117,0.382,0.18,0.786,0.18,1.207c0,2.337-1.955,4.231-4.369,4.231c-2.412,0-4.368-1.894-4.368-4.231
	c0-0.421,0.063-0.825,0.181-1.207h-1.291v5.936c0,0.307,0.251,0.56,0.559,0.56h9.785c0.308,0,0.559-0.253,0.559-0.56V145.228z
	 M429.543,140.846c-0.348,0-0.633,0.285-0.633,0.632v1.515c0,0.348,0.285,0.632,0.633,0.632h1.587c0.348,0,0.632-0.285,0.632-0.632
	v-1.515c0-0.348-0.284-0.632-0.632-0.632H429.543z M421.11,139.286h10.445c0.992,0,1.804,0.811,1.804,1.803v10.446
	c0,0.993-0.812,1.804-1.804,1.804H421.11c-0.993,0-1.803-0.811-1.803-1.804v-10.446C419.307,140.096,420.117,139.286,421.11,139.286
	"/>
<path fill-rule="evenodd" clip-rule="evenodd" fill="#FFFFFF" d="M383.293,138.812c0.679,0,1.359,0,2.038,0
	c0.025,1.058-0.051,2.22,0.039,3.213c1.032,0.091,2.234,0.014,3.332,0.038c0,0.877,0,1.751,0,2.627c-1.111,0-2.222,0-3.332,0
	c-0.07,0.854-0.039,1.796-0.039,2.743c0,0.929-0.113,1.967,0.157,2.626c0.507,1.235,2.398,0.483,3.332,0.275
	c0,1.018,0,2.037,0,3.056c-2.879,0.914-6.601,0.46-6.936-2.547c-0.221-1.967,0.126-4.005-0.04-6.153c-0.509,0-1.02,0-1.528,0
	c0-0.875,0-1.75,0-2.627c1.894-0.116,2.617-1.404,2.899-3.135C383.214,138.863,383.244,138.828,383.293,138.812z"/>
<path fill="#4E4D50" d="M404.471,128.39c-0.372,1.946-0.824,3.812-2.167,4.787c-0.414-2.941,0.609-5.152,1.083-7.499
	c-0.811-1.364,0.099-4.107,1.808-3.432c2.103,0.833-1.821,5.072,0.813,5.602c2.751,0.552,3.874-4.772,2.167-6.506
	c-2.463-2.5-7.174-0.055-6.593,3.525c0.139,0.875,1.044,1.14,0.36,2.348c-1.577-0.35-2.047-1.593-1.986-3.252
	c0.097-2.714,2.438-4.615,4.786-4.878c2.97-0.332,5.757,1.09,6.144,3.885c0.434,3.153-1.34,6.568-4.518,6.324
	C405.506,129.225,405.146,128.799,404.471,128.39"/>
<path fill="#4E4D50" d="M371.824,121.058c-0.6,0.266-1.243,0.445-1.917,0.527c0.689-0.415,1.218-1.069,1.467-1.849
	c-0.645,0.382-1.359,0.66-2.12,0.811c-0.61-0.648-1.478-1.055-2.438-1.055c-1.844,0-3.339,1.495-3.339,3.34
	c0,0.26,0.03,0.516,0.086,0.761c-2.774-0.139-5.235-1.469-6.882-3.489c-0.288,0.492-0.453,1.066-0.453,1.679
	c0,1.159,0.59,2.181,1.486,2.78c-0.548-0.018-1.063-0.167-1.514-0.418c0,0.015,0,0.028,0,0.042c0,1.619,1.152,2.97,2.68,3.275
	c-0.28,0.076-0.576,0.117-0.881,0.117c-0.214,0-0.423-0.021-0.628-0.059c0.425,1.326,1.659,2.292,3.12,2.318
	c-1.143,0.896-2.583,1.43-4.147,1.43c-0.27,0-0.536-0.016-0.797-0.046c1.478,0.947,3.233,1.5,5.12,1.5c6.143,0,9.5-5.088,9.5-9.502
	c0-0.145-0.003-0.29-0.009-0.432C370.81,122.315,371.377,121.728,371.824,121.058"/>
<path fill="#4E4D50" d="M343.892,133.176h-2.924v-7.07h-1.464v-2.438h1.464v-1.463c0-1.987,0.824-3.168,3.168-3.168h1.953v2.437
	h-1.219c-0.913,0-0.974,0.34-0.974,0.976l-0.003,1.219h2.211l-0.259,2.438h-1.952V133.176z"/>
<path fill="#4E4D50" d="M426.345,123.34c-1.558,0-2.822,1.226-2.822,2.736c0,1.511,1.264,2.734,2.822,2.734
	c1.56,0,2.822-1.223,2.822-2.734C429.167,124.566,427.905,123.34,426.345,123.34 M431.77,125.022h-1.236
	c0.117,0.382,0.18,0.786,0.18,1.207c0,2.337-1.955,4.231-4.369,4.231c-2.412,0-4.368-1.894-4.368-4.231
	c0-0.421,0.063-0.825,0.181-1.207h-1.291v5.936c0,0.307,0.251,0.56,0.559,0.56h9.785c0.308,0,0.559-0.253,0.559-0.56V125.022z
	 M429.543,120.641c-0.348,0-0.633,0.285-0.633,0.632v1.515c0,0.348,0.285,0.632,0.633,0.632h1.587c0.348,0,0.632-0.285,0.632-0.632
	v-1.515c0-0.348-0.284-0.632-0.632-0.632H429.543z M421.11,119.081h10.445c0.992,0,1.804,0.811,1.804,1.803v10.446
	c0,0.993-0.812,1.804-1.804,1.804H421.11c-0.993,0-1.803-0.811-1.803-1.804v-10.446C419.307,119.891,420.117,119.081,421.11,119.081
	"/>
<path fill-rule="evenodd" clip-rule="evenodd" fill="#4E4D50" d="M383.293,118.607c0.679,0,1.359,0,2.038,0
	c0.025,1.058-0.051,2.22,0.039,3.213c1.032,0.091,2.234,0.014,3.332,0.038c0,0.877,0,1.751,0,2.627c-1.111,0-2.222,0-3.332,0
	c-0.07,0.854-0.039,1.796-0.039,2.743c0,0.929-0.113,1.967,0.157,2.626c0.507,1.235,2.398,0.483,3.332,0.275
	c0,1.018,0,2.037,0,3.056c-2.879,0.914-6.601,0.46-6.936-2.547c-0.221-1.967,0.126-4.005-0.04-6.153c-0.509,0-1.02,0-1.528,0
	c0-0.875,0-1.75,0-2.627c1.894-0.116,2.617-1.404,2.899-3.135C383.214,118.658,383.244,118.623,383.293,118.607z"/>
<g>
	<path fill="#4E4D50" d="M326.263,12.613c0.199-0.419,0.298-0.848,0.298-1.311c0-1.63-1.19-2.82-2.81-2.82
		c-1.619,0-2.809,1.179-2.809,2.766c0,0.473,0.121,0.991,0.341,1.443c0.11,0.22,0.176,0.33,0.364,0.594h-1.399
		c-0.055-0.121-0.099-0.198-0.132-0.253c-0.253-0.518-0.375-1.113-0.375-1.796c0-2.379,1.686-4.12,3.999-4.12
		c2.325,0,4.01,1.785,4.01,4.241c0,0.419-0.056,0.871-0.166,1.245c-0.078,0.275-0.132,0.408-0.331,0.716h-1.465
		C326.043,13.01,326.131,12.877,326.263,12.613z"/>
	<path fill="#4E4D50" d="M319.687,20.34c0-2.236,1.807-4.032,4.054-4.032c2.269,0,4.032,1.785,4.032,4.087
		c0,2.225-1.785,4.021-4.01,4.021C321.482,24.416,319.687,22.621,319.687,20.34z M326.528,20.406c0-1.542-1.201-2.732-2.776-2.732
		c-1.608,0-2.853,1.168-2.853,2.677c0,1.509,1.223,2.721,2.754,2.721C325.305,23.072,326.528,21.938,326.528,20.406z"/>
	<path fill="#4E4D50" d="M319.632,34.546l5.376-5.574h-5.167v-1.289h7.986v0.11l-5.255,5.618h5.045v1.267h-7.986V34.546z"/>
	<path fill="#4E4D50" d="M319.632,45.116l5.376-5.574h-5.167v-1.289h7.986v0.11l-5.255,5.618h5.045v1.267h-7.986V45.116z"/>
	<path fill="#4E4D50" d="M319.841,48.944h7.777v4.417h-1.201v-3.096h-1.773v3.063h-1.201v-3.063h-2.401v3.129h-1.201V48.944z"/>
	<path fill="#4E4D50" d="M326.263,62.002c0.199-0.419,0.298-0.848,0.298-1.311c0-1.63-1.19-2.82-2.81-2.82
		c-1.619,0-2.809,1.179-2.809,2.765c0,0.474,0.121,0.992,0.341,1.443c0.11,0.22,0.176,0.331,0.364,0.595h-1.399
		c-0.055-0.121-0.099-0.198-0.132-0.253c-0.253-0.518-0.375-1.113-0.375-1.796c0-2.379,1.686-4.12,3.999-4.12
		c2.325,0,4.01,1.785,4.01,4.241c0,0.419-0.056,0.871-0.166,1.245c-0.078,0.275-0.132,0.408-0.331,0.716h-1.465
		C326.043,62.399,326.131,62.267,326.263,62.002z"/>
	<path fill="#4E4D50" d="M326.417,68.584h-6.576v-1.311h6.576v-1.829h1.201v4.969h-1.201V68.584z"/>
</g>
<g>
	<path fill="#4D4D4F" d="M597.311,9.855c0-0.572,0.132-1.056,0.429-1.507c0.176-0.286,0.418-0.539,0.683-0.737
		c0.297-0.22,0.483-0.319,0.968-0.495l0.429,1.122c-0.945,0.352-1.419,0.902-1.419,1.683c0,0.726,0.474,1.232,1.144,1.232
		c0.496,0,0.892-0.297,1.166-0.869l0.43-0.891c0.594-1.232,1.188-1.728,2.123-1.728c1.199,0,2.068,0.958,2.068,2.277
		c0,0.462-0.109,0.946-0.285,1.288c-0.199,0.385-0.484,0.682-0.98,1.023l-0.692-0.968c0.362-0.231,0.483-0.33,0.616-0.506
		c0.165-0.209,0.264-0.495,0.264-0.814c0-0.594-0.341-0.979-0.857-0.979c-0.188,0-0.33,0.055-0.484,0.165
		c-0.198,0.143-0.319,0.319-0.528,0.748l-0.374,0.748c-0.385,0.771-0.407,0.825-0.682,1.123c-0.44,0.484-0.979,0.726-1.617,0.726
		C598.311,12.496,597.311,11.396,597.311,9.855z"/>
	<path fill="#4D4D4F" d="M597.432,20.581h3.52v-3.608h-3.52v-1.309h7.767v1.32h-3.036v3.597h3.036v1.31h-7.767V20.581z"/>
	<path fill="#4D4D4F" d="M597.277,29.172c0-2.233,1.805-4.027,4.049-4.027c2.266,0,4.025,1.782,4.025,4.082
		c0,2.222-1.781,4.016-4.004,4.016C599.07,33.242,597.277,31.449,597.277,29.172z M604.109,29.238c0-1.541-1.199-2.729-2.772-2.729
		c-1.606,0-2.85,1.166-2.85,2.673s1.222,2.717,2.751,2.717C602.889,31.9,604.109,30.767,604.109,29.238z"/>
	<path fill="#4D4D4F" d="M600.863,40.039c-0.076-0.154-0.132-0.33-0.176-0.517c-0.076-0.286-0.088-0.506-0.088-0.99v-0.715h-3.168
		v-1.32h7.767v1.925c0,0.814-0.088,1.331-0.297,1.738c-0.353,0.704-1.067,1.1-1.947,1.1C602.02,41.26,601.238,40.809,600.863,40.039
		z M604.055,38.499v-0.682h-2.355v0.693c0,0.957,0.396,1.441,1.199,1.441C603.669,39.951,604.055,39.478,604.055,38.499z"/>
</g>
<g>
	<path fill="#4D4D4F" d="M561.753,7.116h7.767v1.32h-7.767V7.116z"/>
	<path fill="#4D4D4F" d="M561.544,18.865l5.368-5.567h-5.159v-1.287h7.976v0.11l-5.247,5.611h5.038v1.265h-7.976V18.865z"/>
	<path fill="#4D4D4F" d="M568.32,23.891h-1.793v2.508h-1.177v-2.497h-3.598V22.56h7.767v3.883h-1.199V23.891z"/>
	<path fill="#4D4D4F" d="M561.6,33.417c0-2.233,1.804-4.027,4.048-4.027c2.267,0,4.026,1.782,4.026,4.082
		c0,2.222-1.782,4.016-4.004,4.016C563.393,37.488,561.6,35.694,561.6,33.417z M568.431,33.483c0-1.541-1.198-2.729-2.772-2.729
		c-1.605,0-2.85,1.166-2.85,2.673s1.222,2.717,2.751,2.717C567.21,36.146,568.431,35.013,568.431,33.483z"/>
</g>
<g>
	<path fill="#4D4D4F" d="M507.497,12.606c0.198-0.418,0.297-0.847,0.297-1.309c0-1.628-1.188-2.816-2.805-2.816
		c-1.618,0-2.806,1.177-2.806,2.761c0,0.473,0.121,0.99,0.341,1.441c0.11,0.22,0.176,0.33,0.363,0.594h-1.397
		c-0.055-0.121-0.099-0.198-0.132-0.253c-0.253-0.517-0.374-1.111-0.374-1.793c0-2.376,1.683-4.115,3.994-4.115
		c2.321,0,4.004,1.782,4.004,4.236c0,0.418-0.055,0.869-0.165,1.243c-0.077,0.275-0.132,0.407-0.33,0.715h-1.463
		C507.277,13.002,507.365,12.87,507.497,12.606z"/>
	<path fill="#4D4D4F" d="M502.073,22.022c-0.737-0.517-1.144-1.408-1.144-2.53c0-1.034,0.264-1.728,0.88-2.277
		c0.528-0.484,1.067-0.649,2.112-0.649h4.929v1.32h-4.555c-1.012,0-1.408,0.11-1.76,0.484c-0.286,0.297-0.407,0.66-0.407,1.221
		c0,0.528,0.165,0.936,0.484,1.221c0.341,0.297,0.759,0.396,1.65,0.396h4.587v1.298h-4.841
		C503.195,22.506,502.557,22.352,502.073,22.022z"/>
	<path fill="#4D4D4F" d="M500.962,28.214c0-0.572,0.132-1.056,0.429-1.507c0.176-0.286,0.418-0.539,0.682-0.737
		c0.297-0.22,0.484-0.319,0.968-0.495l0.429,1.122c-0.946,0.352-1.419,0.902-1.419,1.683c0,0.726,0.473,1.232,1.144,1.232
		c0.495,0,0.891-0.297,1.166-0.869l0.429-0.891c0.594-1.232,1.188-1.728,2.124-1.728c1.199,0,2.068,0.958,2.068,2.277
		c0,0.462-0.11,0.946-0.286,1.288c-0.198,0.385-0.484,0.682-0.979,1.023l-0.693-0.968c0.363-0.231,0.484-0.33,0.616-0.506
		c0.165-0.209,0.264-0.495,0.264-0.814c0-0.594-0.341-0.979-0.858-0.979c-0.187,0-0.33,0.055-0.484,0.165
		c-0.198,0.143-0.319,0.319-0.528,0.748l-0.374,0.748c-0.385,0.771-0.407,0.825-0.682,1.123c-0.44,0.484-0.979,0.726-1.617,0.726
		C501.963,30.855,500.962,29.755,500.962,28.214z"/>
	<path fill="#4D4D4F" d="M507.651,36.596h-6.568v-1.309h6.568v-1.826h1.199v4.961h-1.199V36.596z"/>
	<path fill="#4D4D4F" d="M500.929,44.679c0-2.233,1.804-4.026,4.048-4.026c2.267,0,4.026,1.782,4.026,4.082
		c0,2.222-1.782,4.016-4.004,4.016C502.722,48.75,500.929,46.956,500.929,44.679z M507.761,44.745c0-1.541-1.199-2.729-2.772-2.729
		c-1.606,0-2.85,1.166-2.85,2.673s1.221,2.717,2.75,2.717C506.54,47.407,507.761,46.274,507.761,44.745z"/>
	<path fill="#4D4D4F" d="M501.083,58.924l4.412-0.891l-4.632-2.178v-0.11l4.621-2.036l-4.4-0.946v-1.31l7.976,1.728v0.11
		l-5.589,2.585l5.578,2.574v0.11l-7.965,1.716V58.924z"/>
	<path fill="#4D4D4F" d="M501.083,63.411h7.767v4.412h-1.199v-3.091h-1.771v3.058h-1.199v-3.058h-2.398v3.124h-1.199V63.411z"/>
	<path fill="#4D4D4F" d="M501.083,74.917l3.246-2.343h-3.246v-1.309h7.767v2.002c0,1.1-0.099,1.562-0.429,2.013
		c-0.396,0.55-1.012,0.825-1.793,0.825c-1.254,0-2.068-0.715-2.255-1.991l-3.29,2.508V74.917z M507.123,74.653
		c0.143-0.077,0.275-0.176,0.363-0.297c0.176-0.242,0.231-0.495,0.231-1.034v-0.737h-2.376v0.627c0,0.198,0,0.352,0.011,0.451
		c0.011,0.253,0.088,0.506,0.209,0.682c0.209,0.286,0.55,0.44,0.968,0.44C506.738,74.785,506.936,74.741,507.123,74.653z"/>
	<path fill="#4D4D4F" d="M507.497,89.514c0.198-0.418,0.297-0.847,0.297-1.309c0-1.628-1.188-2.816-2.805-2.816
		c-1.618,0-2.806,1.177-2.806,2.761c0,0.473,0.121,0.99,0.341,1.441c0.11,0.22,0.176,0.33,0.363,0.594h-1.397
		c-0.055-0.121-0.099-0.198-0.132-0.253c-0.253-0.517-0.374-1.111-0.374-1.793c0-2.376,1.683-4.115,3.994-4.115
		c2.321,0,4.004,1.782,4.004,4.236c0,0.418-0.055,0.869-0.165,1.243c-0.077,0.275-0.132,0.407-0.33,0.715h-1.463
		C507.277,89.91,507.365,89.778,507.497,89.514z"/>
	<path fill="#4D4D4F" d="M501.083,99.029l1.826-0.771v-2.926l-1.826-0.858v-1.452l7.976,3.85v0.099l-7.976,3.521V99.029z
		 M506.364,96.872l-2.266-1.023v1.937L506.364,96.872z"/>
	<path fill="#4D4D4F" d="M501.083,107.19l3.246-2.343h-3.246v-1.309h7.767v2.002c0,1.1-0.099,1.562-0.429,2.013
		c-0.396,0.55-1.012,0.825-1.793,0.825c-1.254,0-2.068-0.715-2.255-1.991l-3.29,2.508V107.19z M507.123,106.927
		c0.143-0.077,0.275-0.176,0.363-0.297c0.176-0.242,0.231-0.495,0.231-1.034v-0.737h-2.376v0.627c0,0.198,0,0.352,0.011,0.451
		c0.011,0.253,0.088,0.506,0.209,0.682c0.209,0.286,0.55,0.44,0.968,0.44C506.738,107.059,506.936,107.015,507.123,106.927z"/>
	<path fill="#4D4D4F" d="M501.083,111.865h7.767v4.412h-1.199v-3.091h-1.771v3.058h-1.199v-3.058h-2.398v3.125h-1.199V111.865z"/>
</g>
<g>
	<path fill="#4D4D4F" d="M468.597,9.855c0-0.572,0.132-1.056,0.429-1.507c0.176-0.286,0.418-0.539,0.682-0.737
		c0.297-0.22,0.484-0.319,0.968-0.495l0.429,1.122c-0.946,0.352-1.419,0.902-1.419,1.683c0,0.726,0.473,1.232,1.144,1.232
		c0.495,0,0.891-0.297,1.166-0.869l0.429-0.891c0.594-1.232,1.188-1.728,2.124-1.728c1.199,0,2.068,0.958,2.068,2.277
		c0,0.462-0.11,0.946-0.286,1.288c-0.198,0.385-0.484,0.682-0.979,1.023l-0.693-0.968c0.363-0.231,0.484-0.33,0.616-0.506
		c0.165-0.209,0.264-0.495,0.264-0.814c0-0.594-0.341-0.979-0.858-0.979c-0.187,0-0.33,0.055-0.484,0.165
		c-0.198,0.143-0.319,0.319-0.528,0.748l-0.374,0.748c-0.385,0.771-0.407,0.825-0.682,1.123c-0.44,0.484-0.979,0.726-1.617,0.726
		C469.598,12.496,468.597,11.396,468.597,9.855z"/>
	<path fill="#4D4D4F" d="M468.718,20.581h3.521v-3.608h-3.521v-1.309h7.767v1.32h-3.037v3.597h3.037v1.31h-7.767V20.581z"/>
	<path fill="#4D4D4F" d="M468.718,25.67h7.767v1.32h-7.767V25.67z"/>
	<path fill="#4D4D4F" d="M472.15,34.108c-0.077-0.154-0.132-0.33-0.176-0.517c-0.077-0.286-0.088-0.506-0.088-0.99v-0.715h-3.168
		v-1.32h7.767v1.925c0,0.814-0.088,1.331-0.297,1.738c-0.352,0.704-1.067,1.1-1.947,1.1
		C473.306,35.329,472.524,34.878,472.15,34.108z M475.341,32.568v-0.682h-2.354v0.693c0,0.957,0.396,1.441,1.199,1.441
		C474.956,34.02,475.341,33.547,475.341,32.568z"/>
	<path fill="#4D4D4F" d="M472.15,42.094c-0.077-0.154-0.132-0.33-0.176-0.517c-0.077-0.286-0.088-0.506-0.088-0.99v-0.715h-3.168
		v-1.32h7.767v1.925c0,0.814-0.088,1.331-0.297,1.738c-0.352,0.704-1.067,1.1-1.947,1.1
		C473.306,43.315,472.524,42.864,472.15,42.094z M475.341,40.554v-0.682h-2.354v0.693c0,0.957,0.396,1.441,1.199,1.441
		C474.956,42.006,475.341,41.533,475.341,40.554z"/>
	<path fill="#4D4D4F" d="M468.718,46.537h7.767v1.32h-7.767V46.537z"/>
	<path fill="#4D4D4F" d="M468.509,58.286l5.369-5.567h-5.16v-1.287h7.976v0.11l-5.248,5.611h5.039v1.265h-7.976V58.286z"/>
	<path fill="#4D4D4F" d="M470.797,69.121c-1.353-0.517-2.211-1.871-2.211-3.466c0-2.299,1.672-3.982,3.96-3.982
		c2.31,0,4.07,1.76,4.07,4.093c0,0.781-0.198,1.474-0.583,2.112c-0.264,0.429-0.418,0.627-0.913,1.1l-0.935-0.88
		c0.484-0.385,0.649-0.561,0.847-0.902c0.231-0.407,0.385-0.979,0.385-1.497c0-1.518-1.254-2.673-2.883-2.673
		c-1.584,0-2.761,1.111-2.761,2.629c0,0.627,0.187,1.155,0.572,1.628c0.385,0.462,0.748,0.671,1.375,0.759v-1.837h1.243v3.234H472.7
		C471.919,69.44,471.413,69.363,470.797,69.121z"/>
	<path fill="#4D4D4F" d="M468.718,82.76l0.913-0.759c-0.363-0.396-0.506-0.583-0.671-0.902c-0.231-0.429-0.341-0.836-0.341-1.287
		c0-1.342,1.012-2.432,2.267-2.432c0.473,0,0.935,0.176,1.254,0.451c0.231,0.209,0.462,0.473,0.715,0.825
		c0.099,0.143,0.22,0.308,0.352,0.506c0.33-0.286,0.473-0.396,0.704-0.528c0.308-0.165,0.583-0.242,0.902-0.242
		c0.946,0,1.672,0.803,1.672,1.87c0,1.067-0.715,1.893-1.639,1.893c-0.363,0-0.737-0.143-1.023-0.407
		c-0.286-0.253-0.407-0.407-0.77-0.924l-1.672,1.342l0.891,0.88l-0.836,0.77l-0.935-0.924l-1.782,1.419V82.76z M472.326,79.79
		c-0.297-0.451-0.418-0.605-0.671-0.825c-0.231-0.198-0.429-0.286-0.682-0.286c-0.649,0-1.243,0.572-1.243,1.221
		c0,0.154,0.033,0.308,0.099,0.451c0.077,0.176,0.176,0.319,0.462,0.649c0.044,0.055,0.11,0.132,0.209,0.242L472.326,79.79z
		 M475.44,80.274c0-0.363-0.242-0.627-0.572-0.627c-0.275,0-0.495,0.121-0.99,0.528c0.044,0.055,0.055,0.066,0.11,0.143
		c0.363,0.462,0.594,0.627,0.892,0.627C475.208,80.945,475.44,80.67,475.44,80.274z"/>
	<path fill="#4D4D4F" d="M468.718,96.059l3.246-2.343h-3.246v-1.309h7.767v2.002c0,1.1-0.099,1.562-0.429,2.013
		c-0.396,0.55-1.012,0.825-1.793,0.825c-1.254,0-2.068-0.715-2.255-1.991l-3.29,2.508V96.059z M474.758,95.795
		c0.143-0.077,0.275-0.176,0.363-0.297c0.176-0.242,0.231-0.495,0.231-1.034v-0.737h-2.376v0.627c0,0.198,0,0.352,0.011,0.451
		c0.011,0.253,0.088,0.506,0.209,0.682c0.209,0.286,0.55,0.44,0.968,0.44C474.373,95.927,474.571,95.883,474.758,95.795z"/>
	<path fill="#4D4D4F" d="M468.718,100.733h7.767v4.412h-1.199v-3.091h-1.771v3.058h-1.199v-3.058h-2.398v3.124h-1.199V100.733z"/>
	<path fill="#4D4D4F" d="M475.286,111.162h-6.568v-1.309h6.568v-1.826h1.199v4.961h-1.199V111.162z"/>
	<path fill="#4D4D4F" d="M469.708,121.414c-0.737-0.517-1.144-1.408-1.144-2.53c0-1.034,0.264-1.727,0.88-2.277
		c0.528-0.483,1.067-0.648,2.112-0.648h4.929v1.32h-4.555c-1.012,0-1.408,0.109-1.76,0.483c-0.286,0.297-0.407,0.66-0.407,1.222
		c0,0.527,0.165,0.935,0.484,1.221c0.341,0.297,0.759,0.396,1.65,0.396h4.587v1.298h-4.841
		C470.83,121.898,470.192,121.744,469.708,121.414z"/>
	<path fill="#4D4D4F" d="M468.718,129.081l3.246-2.344h-3.246v-1.31h7.767v2.003c0,1.1-0.099,1.562-0.429,2.013
		c-0.396,0.551-1.012,0.825-1.793,0.825c-1.254,0-2.068-0.715-2.255-1.991l-3.29,2.509V129.081z M474.758,128.816
		c0.143-0.077,0.275-0.176,0.363-0.297c0.176-0.242,0.231-0.495,0.231-1.034v-0.737h-2.376v0.627c0,0.198,0,0.353,0.011,0.451
		c0.011,0.253,0.088,0.507,0.209,0.683c0.209,0.286,0.55,0.439,0.968,0.439C474.373,128.948,474.571,128.904,474.758,128.816z"/>
	<path fill="#4D4D4F" d="M468.509,140.488l5.369-5.566h-5.16v-1.288h7.976v0.11l-5.248,5.611h5.039v1.265h-7.976V140.488z"/>
	<path fill="#4D4D4F" d="M468.597,146.361c0-0.572,0.132-1.056,0.429-1.507c0.176-0.286,0.418-0.539,0.682-0.737
		c0.297-0.22,0.484-0.319,0.968-0.495l0.429,1.122c-0.946,0.353-1.419,0.902-1.419,1.684c0,0.726,0.473,1.231,1.144,1.231
		c0.495,0,0.891-0.297,1.166-0.869l0.429-0.891c0.594-1.232,1.188-1.728,2.124-1.728c1.199,0,2.068,0.957,2.068,2.277
		c0,0.462-0.11,0.946-0.286,1.287c-0.198,0.386-0.484,0.683-0.979,1.023l-0.693-0.968c0.363-0.231,0.484-0.33,0.616-0.507
		c0.165-0.209,0.264-0.495,0.264-0.813c0-0.595-0.341-0.979-0.858-0.979c-0.187,0-0.33,0.055-0.484,0.165
		c-0.198,0.144-0.319,0.319-0.528,0.748l-0.374,0.748c-0.385,0.771-0.407,0.825-0.682,1.122c-0.44,0.484-0.979,0.727-1.617,0.727
		C469.598,149.002,468.597,147.901,468.597,146.361z"/>
</g>
<g>
	<path fill="#4E4D50" d="M537.264,12.613c0.198-0.419,0.297-0.848,0.297-1.311c0-1.63-1.189-2.82-2.809-2.82
		s-2.809,1.179-2.809,2.766c0,0.473,0.121,0.991,0.341,1.443c0.11,0.22,0.177,0.33,0.364,0.594h-1.4
		c-0.055-0.121-0.099-0.198-0.131-0.253c-0.254-0.518-0.375-1.113-0.375-1.796c0-2.379,1.686-4.12,3.998-4.12
		c2.325,0,4.011,1.785,4.011,4.241c0,0.419-0.056,0.871-0.165,1.245c-0.078,0.275-0.133,0.408-0.332,0.716h-1.465
		C537.043,13.01,537.131,12.877,537.264,12.613z"/>
	<path fill="#4E4D50" d="M530.687,20.34c0-2.236,1.807-4.032,4.054-4.032c2.27,0,4.033,1.785,4.033,4.087
		c0,2.225-1.785,4.021-4.011,4.021C532.482,24.416,530.687,22.621,530.687,20.34z M537.527,20.406c0-1.542-1.201-2.732-2.775-2.732
		c-1.608,0-2.854,1.168-2.854,2.677c0,1.509,1.223,2.721,2.754,2.721C536.305,23.072,537.527,21.938,537.527,20.406z"/>
	<path fill="#4E4D50" d="M530.632,34.546l5.376-5.574h-5.166v-1.289h7.986v0.11l-5.256,5.618h5.046v1.267h-7.986V34.546z"/>
	<path fill="#4E4D50" d="M530.632,45.116l5.376-5.574h-5.166v-1.289h7.986v0.11l-5.256,5.618h5.046v1.267h-7.986V45.116z"/>
	<path fill="#4E4D50" d="M530.842,48.944h7.776v4.417h-1.2v-3.096h-1.773v3.063h-1.201v-3.063h-2.401v3.129h-1.2V48.944z"/>
	<path fill="#4E4D50" d="M537.264,62.002c0.198-0.419,0.297-0.848,0.297-1.311c0-1.63-1.189-2.82-2.809-2.82
		s-2.809,1.179-2.809,2.765c0,0.474,0.121,0.992,0.341,1.443c0.11,0.22,0.177,0.331,0.364,0.595h-1.4
		c-0.055-0.121-0.099-0.198-0.131-0.253c-0.254-0.518-0.375-1.113-0.375-1.796c0-2.379,1.686-4.12,3.998-4.12
		c2.325,0,4.011,1.785,4.011,4.241c0,0.419-0.056,0.871-0.165,1.245c-0.078,0.275-0.133,0.408-0.332,0.716h-1.465
		C537.043,62.399,537.131,62.267,537.264,62.002z"/>
	<path fill="#4E4D50" d="M537.418,68.584h-6.576v-1.311h6.576v-1.829h1.2v4.969h-1.2V68.584z"/>
</g>
</svg>
